<svg id="Layer_1" data-name="Layer 1" xmlns="http://www.w3.org/2000/svg" viewBox="0 0 1893.8 1908.09"><defs><style>.cls-1,.cls-4,.cls-8{fill:none;stroke-miterlimit:10;}.cls-1{stroke:#4d4d4d;}.cls-1,.cls-8{stroke-width:35.96px;}.cls-2{opacity:0.15;}.cls-3{fill:#fff;}.cls-4,.cls-8{stroke:#666;}.cls-4{stroke-width:17.98px;}.cls-5{fill:#666;}.cls-6{opacity:0.36;}.cls-7{opacity:0.75;}</style></defs><title>circle</title><path class="cls-1" d="M1227.59,327.46" transform="translate(-297.97 -285.05)"/><path class="cls-1" d="M929.35,394.05" transform="translate(-297.97 -285.05)"/><g class="cls-2"><path class="cls-3" d="M1952.05,1813.28c-24-36-83.9-251.71-89.9-263.7s-27-140.83-30-167.8-24-125.85-83.9-287.67-161.81-167.8-179.79-173.79-53.94-59.94-83.91-77.91-131.84-12-149.82-12-77.91-59.93-107.88-71.92-83.9-12-119.86,0-56.93,68.92-77.91,77.91-140.83-9-173.79,0S729.47,920.32,723.48,980.25s15,134.84,15,134.84l-36,167.8s-39-62.92-50.94-74.91-41.95-12-65.92,6-167.81,161.82-173.8,209.76,48,95.89,89.9,149.83,53.93,161.81,155.82,209.75,407.52,191.78,461.46,227.74,89.89,107.87,89.89,107.87" transform="translate(-297.97 -285.05)"/><path class="cls-4" d="M1208.91,2118.92S1173,2047,1119,2011.05s-359.58-179.79-461.46-227.74-113.87-155.82-155.82-209.75-95.89-101.89-89.9-149.83S561.67,1232,585.64,1214s53.94-18,65.92-6,50.94,74.91,50.94,74.91" transform="translate(-297.97 -285.05)"/><path class="cls-4" d="M738.46,1115.09s-21-74.91-15-134.84S822.36,845.4,855.33,836.41s152.82,9,173.79,0,42-65.92,77.91-77.91,89.9-12,119.86,0,89.9,71.92,107.88,71.92,119.86-6,149.82,12,65.93,71.91,83.91,77.91,119.86,12,179.79,173.79,80.9,260.7,83.9,287.67,24,155.82,30,167.8" transform="translate(-297.97 -285.05)"/><path class="cls-4" d="M570.66,1330.84s77.91,6,119.86,47.94,47.94,42,47.94,53.94-42,119.86-42,119.86" transform="translate(-297.97 -285.05)"/><path class="cls-5" d="M693.51,1381.78s0-191.78,18-227.74,53.94-125.85,185.79-149.82,587.31-18,677.21,24,131.85,95.89,131.85,143.83-47.95,89.9-71.92,95.89-569.34-18-671.22-6-137.84,41.95-161.81,71.91-18,59.93-24,71.92-18,30-30,30S693.51,1381.78,693.51,1381.78Z" transform="translate(-297.97 -285.05)"/><path class="cls-1" d="M1434.54,681.72" transform="translate(-297.97 -285.05)"/><path class="cls-1" d="M1434.54,681.72" transform="translate(-297.97 -285.05)"/></g><g class="cls-6"><path class="cls-3" d="M1922.08,1501.64c-6-12-27-140.84-30-167.81s-24-125.85-83.9-287.66-161.81-167.81-179.79-173.8-53.94-59.93-83.91-77.91-131.84-12-149.82-12-77.91-59.93-107.88-71.92-83.9-12-119.86,0-56.93,68.92-77.91,77.91-140.83-9-173.79,0S789.4,872.37,783.41,932.3s15,134.84,15,134.84l-36,167.81S723.48,1172,711.49,1160s-42-12-65.92,6-167.81,161.81-173.8,209.76,48,95.88,89.9,149.82,53.93,161.81,155.82,209.76S1125,1927.14,1179,1963.1,1268.84,2071,1268.84,2071" transform="translate(-297.97 -285.05)"/><path class="cls-4" d="M1268.84,2071s-35.95-71.92-89.89-107.88-359.58-179.79-461.46-227.73-113.87-155.82-155.82-209.76-95.89-101.88-89.9-149.82S621.6,1184,645.57,1166s53.94-18,65.92-6S762.43,1235,762.43,1235" transform="translate(-297.97 -285.05)"/><path class="cls-4" d="M798.39,1067.14s-21-74.91-15-134.84,98.88-134.84,131.85-143.83,152.82,9,173.79,0,42-65.92,77.91-77.91,89.9-12,119.86,0,89.9,71.92,107.88,71.92,119.86-6,149.82,12,65.93,71.92,83.91,77.91,119.86,12,179.79,173.8,80.9,260.7,83.9,287.66,24,155.82,30,167.81" transform="translate(-297.97 -285.05)"/><path class="cls-4" d="M630.59,1282.89s77.91,6,119.86,47.95,47.94,42,47.94,53.94-41.95,119.86-41.95,119.86" transform="translate(-297.97 -285.05)"/><path class="cls-5" d="M753.44,1333.83s0-191.77,18-227.73,53.94-125.85,185.79-149.83,587.31-18,677.21,24,131.85,95.88,131.85,143.83-48,89.89-71.92,95.89-569.34-18-671.22-6-137.84,42-161.81,71.92-18,59.93-24,71.92-18,30-30,30S753.44,1333.83,753.44,1333.83Z" transform="translate(-297.97 -285.05)"/><path class="cls-1" d="M1560.39,501.93" transform="translate(-297.97 -285.05)"/><path class="cls-1" d="M1560.39,501.93" transform="translate(-297.97 -285.05)"/></g><g class="cls-7"><path class="cls-3" d="M2071.91,1669.44c-24-36-83.9-251.7-89.89-263.69s-27-140.84-30-167.8-24-125.86-83.9-287.67-161.81-167.8-179.79-173.8-53.94-59.93-83.91-77.91-131.84-12-149.82-12-77.91-59.93-107.88-71.92-83.9-12-119.86,0S1170,683.59,1149,692.58s-140.83-9-173.79,0-125.86,83.9-131.85,143.83,15,134.85,15,134.85l-36,167.8s-39-62.93-50.94-74.91-41.95-12-65.92,6S537.69,1232,531.7,1279.9s47.95,95.89,89.9,149.82,53.93,161.81,155.82,209.76,407.52,191.78,461.46,227.73,89.89,107.88,89.89,107.88" transform="translate(-297.97 -285.05)"/><path class="cls-4" d="M1328.77,1975.09s-36-71.92-89.89-107.88S879.3,1687.42,777.42,1639.48,663.55,1483.66,621.6,1429.72s-95.89-101.88-89.9-149.82,149.83-191.78,173.8-209.76,53.94-18,65.92-6,50.94,74.91,50.94,74.91" transform="translate(-297.97 -285.05)"/><path class="cls-4" d="M858.32,971.26s-21-74.92-15-134.85,98.88-134.84,131.85-143.83,152.82,9,173.79,0,42-65.92,77.91-77.91,89.9-12,119.86,0,89.9,71.92,107.88,71.92,119.86-6,149.82,12,65.93,71.92,83.91,77.91,119.86,12,179.79,173.8,80.9,260.7,83.9,287.67,24,155.81,30,167.8" transform="translate(-297.97 -285.05)"/><path class="cls-4" d="M690.52,1187s77.91,6,119.86,47.94,47.94,42,47.94,53.94-42,119.86-42,119.86" transform="translate(-297.97 -285.05)"/><path class="cls-5" d="M813.37,1238s0-191.78,18-227.74,53.94-125.85,185.79-149.83,587.31-18,677.21,24,131.85,95.89,131.85,143.83-48,89.9-71.92,95.89-569.34-18-671.22-6S945.22,1160,921.25,1190s-18,59.93-24,71.92-18,30-30,30S813.37,1238,813.37,1238Z" transform="translate(-297.97 -285.05)"/><path class="cls-1" d="M1620.33,406" transform="translate(-297.97 -285.05)"/><path class="cls-1" d="M1620.33,406" transform="translate(-297.97 -285.05)"/></g><path class="cls-3" d="M2101.88,1525.61c-24-36-83.91-251.71-89.9-263.69s-27-140.84-30-167.81-24-125.85-83.91-287.66-161.81-167.81-179.79-173.8-53.94-59.93-83.9-77.91-131.85-12-149.83-12-77.91-59.93-107.87-71.91-83.9-12-119.86,0-56.94,68.92-77.91,77.91-140.84-9-173.8,0S879.3,632.65,873.3,692.58s15,134.84,15,134.84l-36,167.81s-39-62.93-50.94-74.91-41.95-12-65.93,6-167.8,161.81-173.79,209.75,47.94,95.89,89.89,149.83,53.94,161.81,155.82,209.76,407.53,191.77,461.46,227.73,89.9,107.88,89.9,107.88" transform="translate(-297.97 -285.05)"/><path class="cls-4" d="M1358.74,1831.26s-36-71.92-89.9-107.88-359.58-179.79-461.46-227.73-113.87-155.82-155.82-209.76S555.67,1184,561.67,1136.06,711.49,944.29,735.46,926.31s53.94-18,65.93-6,50.94,74.91,50.94,74.91" transform="translate(-297.97 -285.05)"/><path class="cls-4" d="M888.29,827.42s-21-74.91-15-134.84,98.89-134.84,131.85-143.83,152.82,9,173.8,0,42-65.93,77.91-77.91,89.89-12,119.86,0,89.89,71.91,107.87,71.91,119.86-6,149.83,12,65.92,71.92,83.9,77.91,119.86,12,179.79,173.8S1979,1067.14,1982,1094.11s24,155.82,30,167.81,65.92,227.73,89.9,263.69" transform="translate(-297.97 -285.05)"/><path class="cls-4" d="M720.48,1043.17s77.91,6,119.86,47.95,47.95,42,47.95,53.93-41.95,119.86-41.95,119.86" transform="translate(-297.97 -285.05)"/><path class="cls-5" d="M843.34,1094.11s0-191.77,18-227.73,53.94-125.86,185.78-149.83,587.32-18,677.21,24,131.85,95.89,131.85,143.84-47.94,89.89-71.91,95.89-569.34-18-671.22-6-137.84,42-161.82,71.92-18,59.93-24,71.92-18,30-30,30S843.34,1094.11,843.34,1094.11Z" transform="translate(-297.97 -285.05)"/><g class="cls-2"><circle class="cls-5" cx="514.49" cy="170.5" r="41.95"/><path class="cls-8" d="M811.73,456c-443,245.37-603.19,803.4-357.81,1246.4s803.4,603.19,1246.39,357.81,603.19-803.4,357.82-1246.4" transform="translate(-297.97 -285.05)"/></g><g class="cls-6"><circle class="cls-5" cx="239.62" cy="390.96" r="41.95"/><path class="cls-8" d="M537.06,676.66c-320.18,392.34-261.7,970,130.64,1290.15s970,261.69,1290.15-130.64,261.69-970-130.64-1290.15" transform="translate(-297.97 -285.05)"/></g><g class="cls-7"><circle class="cls-5" cx="86.36" cy="649.76" r="41.95"/><path class="cls-8" d="M384.06,935.6C213.5,1412.42,461.77,1937.23,938.59,2107.79s1001.63-77.72,1172.19-554.54S2033.06,551.62,1556.24,381.06" transform="translate(-297.97 -285.05)"/></g><polygon class="cls-5" points="1000.84 101.88 912.61 50.95 1000.84 0 1000.84 101.88"/><circle class="cls-5" cx="41.95" cy="964.88" r="41.95"/><path class="cls-8" d="M339.92,1250.77c0,506.41,410.53,916.93,916.94,916.93s916.93-410.52,916.93-916.93-410.52-916.93-916.93-916.93" transform="translate(-297.97 -285.05)"/></svg>