<svg id="Layer_1" data-name="Layer 1" xmlns="http://www.w3.org/2000/svg" viewBox="0 0 1851.62 1851.62"><defs><style>.cls-1,.cls-4{fill:#fff;}.cls-2,.cls-5,.cls-6,.cls-7{fill:none;}.cls-2,.cls-4,.cls-5,.cls-6,.cls-7{stroke:#666;stroke-miterlimit:10;}.cls-2,.cls-4{stroke-width:15.87px;}.cls-3{fill:#666;}.cls-5,.cls-6,.cls-7{stroke-width:31.74px;}.cls-5{opacity:0.18;}.cls-6{opacity:0.54;}</style></defs><title>gesture_sel</title><path class="cls-1" d="M1877.37,1549.16c-21.17-31.74-74.07-222.19-79.36-232.77s-23.81-124.33-26.45-148.13-21.16-111.1-74.07-253.94S1554.66,766.19,1538.78,760.9s-47.61-52.9-74.06-68.77-116.39-10.58-132.26-10.58-68.77-52.91-95.23-63.49-74.06-10.58-105.8,0-50.26,60.84-68.78,68.78-124.32-7.94-153.42,0-111.09,74.06-116.38,127,13.22,119,13.22,119L774.33,1081s-34.39-55.55-45-66.13-37-10.58-58.19,5.29S523,1163,517.75,1205.29s42.32,84.65,79.35,132.26,47.62,142.84,137.55,185.16S1094.4,1692,1142,1723.74s79.35,95.23,79.35,95.23" transform="translate(-274.19 -274.19)"/><path class="cls-2" d="M1221.36,1819s-31.74-63.48-79.35-95.23-317.42-158.71-407.36-201S634.14,1385.16,597.1,1337.55s-84.64-89.94-79.35-132.26S650,1036,671.17,1020.13s47.61-15.87,58.19-5.29,45,66.13,45,66.13" transform="translate(-274.19 -274.19)"/><path class="cls-2" d="M806.07,932.84s-18.51-66.13-13.22-119,87.29-119,116.38-127,134.91,7.93,153.42,0,37-58.2,68.78-68.78,79.35-10.58,105.8,0,79.36,63.49,95.23,63.49,105.81-5.29,132.26,10.58,58.19,63.48,74.06,68.77,105.81,10.58,158.71,153.42,71.42,230.13,74.07,253.94,21.16,137.55,26.45,148.13,58.19,201,79.36,232.77" transform="translate(-274.19 -274.19)"/><path class="cls-2" d="M657.94,1123.29s68.78,5.29,105.81,42.32,42.32,37,42.32,47.62S769,1319,769,1319" transform="translate(-274.19 -274.19)"/><path class="cls-3" d="M766.39,1168.26s0-169.29,15.88-201,47.61-111.1,164-132.26,518.45-15.87,597.8,21.16,116.39,84.64,116.39,127-42.32,79.35-63.48,84.64-502.58-15.87-592.52-5.29-121.68,37-142.84,63.49-15.87,52.9-21.16,63.48-15.87,26.45-26.45,26.45S766.39,1168.26,766.39,1168.26Z" transform="translate(-274.19 -274.19)"/><path class="cls-4" d="M806.07,932.84" transform="translate(-274.19 -274.19)"/><circle class="cls-5" cx="925.81" cy="925.81" r="909.94"/><circle class="cls-6" cx="925.81" cy="925.81" r="838.1"/><circle class="cls-7" cx="925.81" cy="925.81" r="766.26"/></svg>