<svg id="Layer_1" data-name="Layer 1" xmlns="http://www.w3.org/2000/svg" viewBox="0 0 1851.37 1851.37"><defs><style>.cls-1,.cls-4{fill:#fff;}.cls-2,.cls-5{fill:none;}.cls-2,.cls-4{stroke:#666;stroke-width:18.78px;}.cls-2,.cls-4,.cls-5{stroke-miterlimit:10;}.cls-3{fill:#666;}.cls-5{stroke:#b3b3b3;stroke-width:37.57px;}</style></defs><title>gesture</title><path class="cls-1" d="M2001.69,1613.25c-25-37.57-87.66-263-93.92-275.5s-28.18-147.14-31.31-175.32-25-131.49-87.66-300.54-169-175.32-187.84-181.58-56.35-62.61-87.65-81.4-137.75-12.52-156.54-12.52-81.39-62.61-112.7-75.13-87.66-12.53-125.23,0-59.48,72-81.39,81.39-147.15-9.39-181.58,0S724.38,680.31,718.12,742.92,733.77,883.8,733.77,883.8L696.2,1059.12S655.51,993.38,643,980.85s-43.83-12.52-68.87,6.27-175.32,169.05-181.58,219.14,50.09,100.18,93.92,156.53,56.35,169.06,162.79,219.15S1075,1782.3,1131.37,1819.87s93.91,112.7,93.91,112.7" transform="translate(-274.31 -274.31)"/><path class="cls-2" d="M1225.28,1932.57s-37.56-75.13-93.91-112.7S755.69,1632,649.24,1581.94s-119-162.79-162.79-219.15-100.18-106.44-93.92-156.53S549.06,1005.9,574.11,987.12s56.35-18.79,68.87-6.27,53.22,78.27,53.22,78.27" transform="translate(-274.31 -274.31)"/><path class="cls-2" d="M733.77,883.8s-21.91-78.26-15.65-140.88S821.43,602,855.87,592.65s159.66,9.39,181.58,0,43.82-68.87,81.39-81.39,93.92-12.53,125.23,0,93.92,75.13,112.7,75.13,125.23-6.26,156.54,12.52,68.87,75.14,87.65,81.4,125.23,12.52,187.84,181.58,84.53,272.37,87.66,300.54,25,162.8,31.31,175.32,68.87,237.93,93.92,275.5" transform="translate(-274.31 -274.31)"/><path class="cls-2" d="M558.46,1109.21s81.39,6.26,125.22,50.09,50.09,43.83,50.09,56.35-43.83,125.23-43.83,125.23" transform="translate(-274.31 -274.31)"/><path class="cls-3" d="M686.81,1162.43s0-200.36,18.79-237.93S762,793,899.7,768s613.61-18.78,707.52,25S1745,893.2,1745,943.29s-50.09,93.92-75.13,100.18-594.83-18.79-701.27-6.26-144,43.83-169.05,75.13-18.79,62.61-25,75.14-18.78,31.3-31.31,31.3S686.81,1162.43,686.81,1162.43Z" transform="translate(-274.31 -274.31)"/><path class="cls-4" d="M733.77,883.8" transform="translate(-274.31 -274.31)"/><circle class="cls-5" cx="925.69" cy="925.69" r="906.9"/></svg>