<svg id="Layer_1" data-name="Layer 1" xmlns="http://www.w3.org/2000/svg" viewBox="0 0 1543.65 1892.45"><defs><style>.cls-1,.cls-2,.cls-3{fill:none;stroke:#666;stroke-linejoin:round;stroke-width:18.07px;}.cls-1{opacity:0.18;}.cls-2{opacity:0.54;}.cls-4{fill:#666;}</style></defs><title>hand_left_sel</title><path class="cls-1" d="M1440.09,2079.19a209.71,209.71,0,0,0,2.14-30.66l0-2.61c1.1-82.79,26.18-146.2,78.93-199.45,35.62-36,70.1-76.17,105.41-122.93,5.48-7.25,7.55-9.52,8.29-10.22,45.64-41.7,82.7-93.38,113.32-158,16.88-35.66,41.41-68.94,75-101.77,37.84-37,66.8-77.4,88.52-123.58,4-8.52,7.66-14.25,9.75-15.31,24.36-12.29,40.86-28.64,50.72-38.42,1.49-1.47,2.93-3,4.2-4.12l43.55-31.58v-120l-14-24.84c-41.63-73.71-117.05-105.28-212.39-88.87-67.58,11.65-129.78,37.23-184.89,76-33.41,23.52-60.37,52.74-80.11,86.85a159,159,0,0,1-29.62,37.16q-1-6.46-1.61-13.46c-4.53-56.34-8.76-102.84-13.3-146.33-1.71-16.32,1.18-38.16,4.23-61.29,1.55-11.7,3.15-23.8,4.41-36.75,1.37-14.11,3.09-28.77,4.74-42.94,5.74-49,11.59-99,9-152.56-1.12-23.29-1.51-47.76-1.89-71.42-.84-51.7-1.7-105.16-9.4-160.64-5.36-38.53-12.44-79.7-34.68-122.1-36.74-70.1-106.49-107.07-182.08-96.43a183.83,183.83,0,0,0-63.58,20.75c-9.34-25.29-34.29-84.55-100-115.93l-22.18-10.6h-92.2l-22.81,11.33c-41.9,20.81-72.83,53.14-90.7,93.85a163,163,0,0,0-35.66-.88c-69.9,5.76-124.75,44.42-150.38,106.07-18.34,44.13-21,84.58-23.34,120.26l-.17,2.58-.24,3.89c-61.83-7.91-142.26,39.44-148.28,45.47s-30.13,20.71-33.14,40.48,0,172.48,0,172.48L498,803.57q3.34,16.11,6.74,32.14c4.76,22.59,9.68,45.94,14.19,69,9.47,48.6,21.85,95.48,33.82,140.82,6.68,25.31,13.59,51.47,19.65,76.78,5.4,22.52,7.63,40.63,7,57-1.95,52.29,4.69,100,11.12,146.2l.18,1.35q1.24,8.88,2.43,17.67c15.74,116.75,31.12,214.68,55.06,313.09a540.63,540.63,0,0,0,32.65,95.68c6.57,14.57,15.17,35.85,14,52.45-2.33,33.4,4.84,61.79,9.58,80.57,1.37,5.43,2.66,10.53,3.27,14,5,28.3,6.33,61.07,7.56,92.75.57,14.27,1.1,27.84,1.88,41.37,0,.21,0,.95,0,1.73l0,1.45c-.08,4.88-.22,12.23.31,20.58m1258.12-785.39-.41.28ZM1516,1252.69Z" transform="translate(-485.33 -188.12)"/><path class="cls-2" d="M1386.51,2070.91A157.62,157.62,0,0,0,1388,2048l0-2.66c1.29-96.48,32.24-174,94.63-237,33.89-34.22,66.82-72.63,100.66-117.44,5.68-7.53,10.41-13.4,15-17.58,40.34-36.86,73.33-83,100.87-141.2,19.68-41.57,47.85-79.95,86.11-117.35,33.14-32.37,58.44-67.66,77.36-107.88,10.2-21.67,20.16-33.45,34.37-40.63,16.73-8.44,28.46-20.07,37-28.55a103,103,0,0,1,9.27-8.58l22.4-16.25v-78.06l-7-12.42c-30.39-53.81-82.86-74.71-156-62.12-59.59,10.27-114.38,32.79-162.86,66.92-27,19-48.63,42.42-64.4,69.68a213.2,213.2,0,0,1-77.12,77.59,109.27,109.27,0,0,1-10.25,5.51c-7.38,3.25-12.43,5.16-15,5.71-1.84-2.12-4.92-7.1-9.18-14.85-11.63-21.22-18.38-45.12-20.63-73.07-4.49-55.88-8.68-102-13.18-145-2.37-22.68.92-47.61,4.41-74,1.49-11.27,3-22.91,4.19-34.9,1.45-14.84,3.22-29.95,4.93-44.57,5.41-46.18,11-93.93,8.65-143.09-1.15-24.1-1.56-49-2-73.13-.81-50.1-1.65-101.87-8.89-154.06-4.89-35.2-10.78-69.67-29-104.37-26.2-50-73.51-75.38-126.52-67.93-49.58,7-84.08,35.94-98.93,82.42-4.11-30.44-10.33-61.24-21.44-92.13-10.23-28.43-29-68.71-74.08-90.24l-11.09-5.29h-67.19l-11.4,5.66c-45.61,22.66-72.67,63.6-77.51,116.47a103.35,103.35,0,0,0-68.44-18c-49.78,4.09-87,30-104.85,72.84-14.9,35.85-17.14,70-19.3,103l-.18,2.61c-1.93,29.36-.82,58,1.39,86-15.15-16.77-34.25-27.19-57.16-31.1-46.1-7.92-80.58,15-86.61,21s-36.15,31.45-39.16,42.84,0,134.43,0,134.43l1.13,5.45q3.33,16,6.71,32c4.82,22.88,9.79,46.46,14.35,69.82,9.13,46.86,21.28,92.87,33,137.37,6.81,25.82,13.76,52.14,20,78,6.58,27.45,9.27,50.21,8.47,71.63-1.77,47.51,4.54,92.85,10.64,136.7l.2,1.41c.82,6,1.65,11.91,2.45,17.84,15.51,115.09,30.63,211.42,54,307.52a488,488,0,0,0,29.4,86.21c9.74,21.59,20.66,50,18.67,78.53-1.73,24.74,3.7,46.24,8.06,63.5,1.61,6.38,3.13,12.41,4.08,17.73,5.7,31.94,7.06,66.61,8.37,100.14.54,13.91,1.07,27.16,1.82,40.37.12,2,.06,4.19,0,6.48v.8c-.08,4.53-.18,10.07.2,16.18" transform="translate(-485.33 -188.12)"/><path class="cls-3" d="M1332.92,2062.63c.91-5.89.82-12,.9-18,1.41-105.72,34.79-198.27,110.33-274.53,34.59-34.92,66.23-72.66,95.91-112,6.63-8.79,13.62-17.57,21.71-25,38.46-35.14,66.38-77.8,88.42-124.36,24-50.64,57.69-94.29,97.22-132.91,27.84-27.21,49.85-57.45,66.2-92.2,13.16-28,30.6-51.6,59-65.93,15.41-7.78,25.16-22.68,38.9-32.64v-36.15c-22.94-40.61-60.61-42.08-99.6-35.36-51,8.79-98.38,27.92-140.85,57.82-19.79,13.93-36.3,31.11-48.69,52.51a265.9,265.9,0,0,1-96.5,97.12,154.26,154.26,0,0,1-15.92,8.43c-45.69,20.11-69.33,11.6-93.62-32.7-16.24-29.61-24.46-61.63-27.13-94.77-3.86-48-8.07-95.89-13.07-143.77-4.2-40.16,4.68-79.95,8.57-119.82,5.83-59.87,16.25-119.76,13.38-179.81-3.54-74.1-.15-148.56-10.39-222.33-4.15-29.85-9.08-59.53-23.3-86.65-15.91-30.35-40.23-43.72-70.94-39.41-33.36,4.68-51.85,23.34-58.24,59.12-1.59,8.87-3.86,17.91-3.56,26.79,2.32,68.49-6,136.35-14.62,203.89-10.56,82.51-20.4,165-28.26,247.86-.84,8.83,3.42,24.14-10.68,23.79-12.21-.29-10.65-15.17-11.39-24.43a285.47,285.47,0,0,1-.25-45.11c7-87.58-2-174-15.39-260.46-6.29-40.5-7.09-81.85-10.61-122.8-4.45-51.92-8-103.94-26-153.69-9.07-25.21-21-47.52-46.44-59.67h-42.17c-35.94,17.85-48.52,49.49-48.2,86.73.64,73.21,4.14,146.4,4.06,219.6s-9.28,146.19-3.61,219.48c.25,3.32,10.16,116.83,5.58,118.82-1-2.71-11.41-105.65-12.05-108.44-7.85-34.25-12.92-78-15-113-3.5-58.23-18.88-114.73-22.94-172.78-1.26-18-2.46-36-3.24-54a138.16,138.16,0,0,0-15.26-57.68c-11.45-22.42-29.31-36.94-54.9-34.84-26,2.14-48.25,13.09-59.28,39.63-11.8,28.37-13.47,58.42-15.44,88.4-2.85,43.23,1.79,86.39,6.24,129.1,5.4,52,4.34,104.14,9.07,156.12C807,889.69,817.55,956,824,1022.85c.39,4,1.42,7.94,1.53,11.92.09,3.4,1.83,7.28-1.74,10.12-1.18-2.7-2.54-5.33-3.5-8.1-3.57-10.42-7.41-20.77-10.44-31.36-12.94-45.27-24.72-90.87-44.65-133.86-5-10.77-8-22.72-10.22-34.46-10.17-53.42-28.11-104.42-47.5-155-7.45-19.42-18-35.92-40.93-39.83-24.33-4.16-40.27,3.52-52.83,24.82-3.48,5.91-9.6,12-9.6,18v96.39c7.09,34.14,14.51,68.22,21.18,102.44,14,71.9,35.46,142,52.5,213.11,6.81,28.4,11,56.79,9.93,86.27-1.84,49.32,6.28,98,12.83,146.69,13.66,101.33,28.76,202.44,53,302a436.58,436.58,0,0,0,26.14,76.73c14.93,33.1,25.92,67.47,23.33,104.6-1.65,23.63,7.4,45.32,11.44,67.94,8.65,48.55,8.12,97.88,10.94,146.91.46,8-.36,16.09.25,24.08" transform="translate(-485.33 -188.12)"/><path class="cls-4" d="M1498.32,1297.66s-29.6-139.85-48.25-163.29-58.73-83.46-158.53-80.6-430.83,77.48-489.88,121.94-81.29,90.26-73.89,125.22,30.71,84.87,73.09,88.21c18.39.68,412.18-100.93,488.28-107.9s106.94,9.33,129,27.48,16.48,11.54,22.7,19.36,17.73,19.08,26.46,17.23S1498.32,1297.66,1498.32,1297.66Z" transform="translate(-485.33 -188.12)"/></svg>