<svg id="Layer_1" data-name="Layer 1" xmlns="http://www.w3.org/2000/svg" viewBox="0 0 1334.81 1779.97"><defs><style>.cls-1{fill:none;stroke:#666;stroke-linejoin:round;stroke-width:18.2px;}.cls-2{fill:#666;}</style></defs><title>hand_left</title><path class="cls-1" d="M1372.33,2007.2c.91-5.93.82-12,.9-18.07,1.43-106.47,35-199.68,111.11-276.48,34.84-35.17,66.71-73.17,96.59-112.75,6.69-8.85,13.72-17.68,21.86-25.13,38.74-35.38,66.86-78.36,89.06-125.24,24.15-51,58.1-95,97.91-133.86,28-27.39,50.19-57.85,66.66-92.84,13.26-28.18,30.82-52,59.41-66.41,15.51-7.83,25.33-22.83,39.18-32.87v-36.4c-23.1-40.9-61-42.38-100.31-35.61-51.35,8.85-99.07,28.12-141.85,58.23-19.92,14-36.56,31.33-49,52.88a267.8,267.8,0,0,1-97.19,97.81,155.38,155.38,0,0,1-16,8.49c-46,20.25-69.82,11.68-94.28-32.93-16.35-29.82-24.64-62.07-27.32-95.45-3.89-48.31-8.13-96.56-13.17-144.78-4.22-40.45,4.72-80.52,8.63-120.67,5.88-60.3,16.37-120.61,13.48-181.09-3.57-74.62-.15-149.61-10.47-223.9-4.17-30.06-9.14-60-23.46-87.26-16-30.57-40.52-44-71.44-39.69-33.6,4.71-52.22,23.5-58.66,59.53-1.6,8.94-3.88,18-3.58,27,2.34,69-6,137.32-14.73,205.34-10.63,83.1-20.53,166.22-28.45,249.61-.85,8.9,3.44,24.31-10.76,24-12.3-.3-10.73-15.29-11.47-24.61a288.33,288.33,0,0,1-.26-45.43c7-88.2-2-175.24-15.49-262.3-6.34-40.79-7.14-82.44-10.68-123.67-4.49-52.3-8.11-104.68-26.14-154.78-9.14-25.39-21.15-47.86-46.77-60.1h-42.47c-36.19,18-48.86,49.85-48.53,87.35.64,73.72,4.17,147.44,4.08,221.15s-9.34,147.23-3.64,221c.26,3.35,10.23,117.66,5.62,119.67-1-2.74-11.49-106.41-12.13-109.22-7.9-34.49-13-78.59-15.12-113.75-3.53-58.65-19-115.55-23.11-174C969,471.83,967.8,453.7,967,435.56a139.08,139.08,0,0,0-15.37-58.09c-11.54-22.58-29.51-37.21-55.29-35.09-26.2,2.16-48.59,13.19-59.7,39.92-11.88,28.56-13.56,58.83-15.55,89-2.87,43.54,1.81,87,6.28,130,5.44,52.35,4.37,104.87,9.14,157.22,6.13,67.39,16.78,134.19,23.31,201.49.39,4,1.42,8,1.53,12,.09,3.42,1.85,7.33-1.75,10.19-1.18-2.72-2.56-5.36-3.52-8.15-3.6-10.5-7.47-20.93-10.52-31.59-13-45.58-24.89-91.51-45-134.81-5-10.84-8-22.88-10.3-34.7C780.08,719.2,762,667.84,742.49,616.93c-7.5-19.57-18.17-36.19-41.23-40.12-24.49-4.19-40.55,3.54-53.2,25-3.5,5.94-9.66,12.09-9.66,18.15V717c7.13,34.38,14.61,68.7,21.33,103.16,14.12,72.41,35.71,143,52.87,214.62,6.85,28.6,11.1,57.2,10,86.88-1.84,49.67,6.33,98.73,12.93,147.74,13.76,102,29,203.87,53.33,304.08a439.72,439.72,0,0,0,26.33,77.27c15,33.34,26.11,68,23.49,105.34-1.66,23.8,7.46,45.65,11.52,68.42,8.72,48.9,8.18,98.57,11,148,.46,8.06-.36,16.21.26,24.25" transform="translate(-629.3 -228.62)"/><path class="cls-2" d="M1538.9,1236.81s-29.81-140.83-48.59-164.45-59.15-84-159.65-81.17-433.89,78-493.35,122.81-81.87,90.9-74.42,126.1,30.93,85.47,73.61,88.84c18.52.68,415.1-101.64,491.74-108.66s107.69,9.39,130,27.67,16.59,11.63,22.85,19.5,17.85,19.21,26.65,17.35S1538.9,1236.81,1538.9,1236.81Z" transform="translate(-629.3 -228.62)"/></svg>