<svg id="Layer_1" data-name="Layer 1" xmlns="http://www.w3.org/2000/svg" viewBox="0 0 1285.03 1713.59"><defs><style>.cls-1{fill:none;stroke:#666;stroke-linejoin:round;stroke-width:17.52px;}.cls-2{fill:#666;}</style></defs><title>hand_right</title><path class="cls-1" d="M953.4,2031.2c-.88-5.71-.79-11.59-.87-17.4-1.37-102.51-33.73-192.24-107-266.17-33.53-33.86-64.21-70.44-93-108.54-6.44-8.52-13.21-17-21.05-24.2-37.29-34.06-64.36-75.43-85.73-120.57-23.25-49.09-55.93-91.41-94.26-128.86-27-26.38-48.33-55.7-64.18-89.39-12.76-27.12-29.67-50-57.2-63.93-14.93-7.53-24.38-22-37.71-31.64v-35c22.24-39.37,58.76-40.79,96.57-34.28,49.43,8.52,95.38,27.08,136.56,56.06,19.18,13.5,35.19,30.16,47.2,50.91a257.72,257.72,0,0,0,93.56,94.16,149.67,149.67,0,0,0,15.43,8.17c44.3,19.5,67.22,11.25,90.77-31.69,15.75-28.72,23.72-59.76,26.31-91.89,3.74-46.52,7.82-93,12.67-139.39,4.07-38.94-4.54-77.51-8.31-116.17-5.65-58.05-15.75-116.11-13-174.33,3.43-71.84.14-144,10.07-215.55,4-28.94,8.8-57.72,22.59-84,15.43-29.43,39-42.39,68.78-38.21,32.34,4.54,50.27,22.63,56.47,57.31,1.53,8.61,3.74,17.37,3.45,26-2.26,66.41,5.79,132.19,14.17,197.67,10.24,80,19.77,160,27.4,240.31.81,8.56-3.31,23.4,10.35,23.07,11.84-.29,10.33-14.71,11-23.69a276.52,276.52,0,0,0,.25-43.74c-6.77-84.9,1.89-168.7,14.92-252.51,6.1-39.27,6.88-79.36,10.28-119.06,4.33-50.35,7.81-100.78,25.17-149,8.79-24.44,20.36-46.07,45-57.86h40.89c34.84,17.32,47,48,46.72,84.09-.62,71-4,141.94-3.93,212.91s9,141.73,3.5,212.79c-.24,3.23-9.85,113.28-5.41,115.21.94-2.63,11.07-102.44,11.69-105.14,7.6-33.21,12.52-75.66,14.55-109.52,3.4-56.46,18.31-111.24,22.25-167.52,1.22-17.44,2.38-34.89,3.13-52.36a134.12,134.12,0,0,1,14.8-55.92c11.11-21.74,28.42-35.82,53.23-33.78,25.22,2.08,46.78,12.7,57.48,38.43,11.43,27.49,13.05,56.63,15,85.69,2.76,41.92-1.74,83.77-6,125.18-5.24,50.4-4.21,101-8.8,151.36-5.9,64.88-16.15,129.19-22.44,194-.38,3.86-1.37,7.69-1.47,11.56-.09,3.29-1.78,7.06,1.68,9.81,1.14-2.62,2.47-5.17,3.39-7.85,3.47-10.11,7.19-20.15,10.12-30.41,12.55-43.88,24-88.1,43.29-129.78,4.84-10.44,7.75-22,9.91-33.41,9.86-51.79,27.26-101.24,46-150.25,7.22-18.84,17.5-34.84,39.69-38.63,23.58-4,39,3.42,51.22,24.08,3.37,5.72,9.3,11.63,9.3,17.47v93.46c-6.87,33.1-14.06,66.13-20.53,99.31-13.6,69.71-34.38,137.63-50.9,206.61-6.6,27.54-10.69,55.07-9.62,83.65,1.77,47.81-6.09,95-12.45,142.22-13.24,98.24-27.88,196.27-51.34,292.75a423.67,423.67,0,0,1-25.34,74.39c-14.48,32.09-25.14,65.41-22.62,101.41,1.6,22.91-7.18,43.94-11.09,65.87-8.4,47.08-7.88,94.9-10.61,142.44-.45,7.76.35,15.6-.25,23.34" transform="translate(-383.69 -318.94)"/><path class="cls-2" d="M793,1289.54s28.7-135.59,46.78-158.32,56.95-80.91,153.7-78.14,417.7,75.12,475,118.22,78.82,87.51,71.64,121.41-29.77,82.28-70.86,85.52c-17.84.65-399.62-97.85-473.4-104.61s-103.68,9-125.1,26.64-16,11.19-22,18.77-17.18,18.5-25.65,16.7S793,1289.54,793,1289.54Z" transform="translate(-383.69 -318.94)"/></svg>