<svg id="Layer_1" data-name="Layer 1" xmlns="http://www.w3.org/2000/svg" viewBox="0 0 1623.57 1623.57"><defs><style>.cls-1{fill:#666;stroke-width:15.71px;}.cls-1,.cls-2,.cls-3,.cls-4,.cls-5{stroke:#666;stroke-miterlimit:10;}.cls-2,.cls-3,.cls-4,.cls-5{fill:none;}.cls-2{stroke-width:27px;}.cls-3,.cls-4,.cls-5{stroke-width:31.42px;}.cls-3{opacity:0.18;}.cls-4{opacity:0.54;}</style></defs><title>perfect</title><path class="cls-1" d="M901.58,1116.09l180.27,180.27a15.7,15.7,0,0,0,22.22,0L1481.3,919.13a15.7,15.7,0,0,1,22.22,0l78.6,78.59a15.72,15.72,0,0,1,0,22.22l-460.93,460.93a15.7,15.7,0,0,1-22.22,0L817.88,1199.78a15.72,15.72,0,0,1,0-22.22l61.48-61.47A15.7,15.7,0,0,1,901.58,1116.09Z" transform="translate(-388.21 -388.21)"/><circle class="cls-2" cx="811.79" cy="811.79" r="576.11"/><circle class="cls-3" cx="811.79" cy="811.79" r="796.07"/><circle class="cls-4" cx="811.79" cy="811.79" r="733.23"/><circle class="cls-5" cx="811.79" cy="811.79" r="670.38"/></svg>