<svg id="Layer_1" data-name="Layer 1" xmlns="http://www.w3.org/2000/svg" viewBox="0 0 2180.63 1326.19"><defs><style>.cls-1{opacity:0.15;}.cls-2{fill:#fff;}.cls-3,.cls-5{fill:none;stroke:#666;stroke-miterlimit:10;}.cls-3{stroke-width:32.62px;}.cls-4{fill:#666;}.cls-5{stroke-width:15.81px;}.cls-6{opacity:0.36;}.cls-7{opacity:0.75;}</style></defs><title>pull</title><g class="cls-1"><path class="cls-2" d="M884.91,1312s79.07-21.08,110.7-31.62,58-31.63,79.07-52.72,485-326.81,574.56-379.52,131.78-58,163.4-52.71,94.88,26.35,116,58,21.08,52.71,26.35,63.25S2223.8,1254,2244.88,1280.39s52.71,68.52,42.17,116-36.9,58-63.25,68.53S2105.19,1536,2105.19,1536s63.26,26.36,79.07,79.07,0,84.34-10.54,100.15-26.36,21.09-31.63,31.63-10.54,47.44-42.17,63.25-152.86,15.82-179.22,10.54-216.12,31.63-253,47.44-147.59,10.55-163.4,5.28-116-15.82-137-21.09-195-58-226.66-105.42c0,0-110.7,21.08-253,94.88" transform="translate(-116.42 -560.39)"/><line class="cls-3" x1="1952.15" y1="46.2" x2="877.76" y2="46.2"/><circle class="cls-4" cx="1924.97" cy="46.2" r="38.05"/><path class="cls-5" d="M2105.19,1536s63.26,26.36,79.07,79.07,0,84.34-10.54,100.15-26.36,21.09-31.63,31.63-10.54,47.44-42.17,63.25-152.86,15.82-179.22,10.54-216.12,31.63-253,47.44-147.59,10.55-163.4,5.28-116-15.82-137-21.09-195-58-226.66-105.42c0,0-110.7,21.08-253,94.88" transform="translate(-116.42 -560.39)"/><path class="cls-4" d="M1418.07,946.53c21-14.17,192.25-117.48,217.54-127.7s52.28-17,74.2,1.71,92.75,95.34,138.28,182.17,136.59,270.7,146.71,321.78,20.23,107.26-50.59,153.23-72.51,44.26-109.61,45.12-72.52-19.58-87.69-29.8-50.59-20.43-60.71-30.64l-40.47-40.87c-10.12-10.21-126.48-240-141.65-270.7s-70.83-127.69-86-143c-5.06-5.11-20.23,10.21-20.23,10.21S1387.72,967,1418.07,946.53Z" transform="translate(-116.42 -560.39)"/><path class="cls-5" d="M1997.13,1405.58s31.63,11.86,58,6.59,63.25-15.82,79.07-15.82" transform="translate(-116.42 -560.39)"/><path class="cls-5" d="M1960.24,1280.39s21.08-31.63,26.35-47.44,0-73.8,0-73.8" transform="translate(-116.42 -560.39)"/><path class="cls-5" d="M1694,1457c31.63,15.82,150.23,102.79,181.86,87s63.25-15.82,110.69-21.09,84.34,21.09,121.24,15.82,89.61-63.26,116-73.8,52.71-21.09,63.25-68.53-21.08-89.61-42.17-116S1960.24,927.22,1955,916.67s-5.27-31.62-26.35-63.25-84.34-52.71-116-58-73.79,0-163.4,52.71-553.48,358.44-574.56,379.52-47.45,42.17-79.07,52.72S884.91,1312,884.91,1312" transform="translate(-116.42 -560.39)"/></g><g class="cls-6"><path class="cls-2" d="M629.43,1312s79.07-21.08,110.69-31.62,58-31.63,79.07-52.72,485-326.81,574.56-379.52,131.78-58,163.41-52.71,94.88,26.35,116,58,21.09,52.71,26.36,63.25S1968.31,1254,1989.4,1280.39s52.71,68.52,42.17,116-36.9,58-63.26,68.53-118.6,71.16-118.6,71.16,63.25,26.36,79.07,79.07,0,84.34-10.55,100.15-26.35,21.09-31.62,31.63-10.54,47.44-42.17,63.25-152.87,15.82-179.22,10.54-216.12,31.63-253,47.44-147.59,10.55-163.41,5.28-116-15.82-137-21.09-195-58-226.66-105.42c0,0-110.69,21.08-253,94.88" transform="translate(-116.42 -560.39)"/><line class="cls-3" x1="1696.66" y1="46.2" x2="622.27" y2="46.2"/><circle class="cls-4" cx="1669.48" cy="46.2" r="38.05"/><path class="cls-5" d="M1849.71,1536s63.25,26.36,79.07,79.07,0,84.34-10.55,100.15-26.35,21.09-31.62,31.63-10.54,47.44-42.17,63.25-152.87,15.82-179.22,10.54-216.12,31.63-253,47.44-147.59,10.55-163.41,5.28-116-15.82-137-21.09-195-58-226.66-105.42c0,0-110.69,21.08-253,94.88" transform="translate(-116.42 -560.39)"/><path class="cls-4" d="M1162.59,946.53c21.05-14.17,192.24-117.48,217.54-127.7s52.27-17,74.19,1.71,92.75,95.34,138.28,182.17,136.6,270.7,146.71,321.78,20.24,107.26-50.59,153.23-72.51,44.26-109.61,45.12-72.51-19.58-87.69-29.8-50.59-20.43-60.7-30.64l-40.48-40.87c-10.11-10.21-126.47-240-141.65-270.7s-70.82-127.69-86-143c-5.06-5.11-20.24,10.21-20.24,10.21S1132.23,967,1162.59,946.53Z" transform="translate(-116.42 -560.39)"/><path class="cls-5" d="M1741.65,1405.58s31.63,11.86,58,6.59,63.26-15.82,79.07-15.82" transform="translate(-116.42 -560.39)"/><path class="cls-5" d="M1704.75,1280.39s21.09-31.63,26.36-47.44,0-73.8,0-73.8" transform="translate(-116.42 -560.39)"/><path class="cls-5" d="M1438.56,1457c31.62,15.82,150.23,102.79,181.85,87s63.26-15.82,110.7-21.09,84.34,21.09,121.23,15.82,89.62-63.26,116-73.8,52.71-21.09,63.26-68.53-21.09-89.61-42.17-116-284.65-353.17-289.92-363.72-5.27-31.62-26.36-63.25-84.33-52.71-116-58-73.8,0-163.41,52.71-553.47,358.44-574.56,379.52-47.44,42.17-79.07,52.72S629.43,1312,629.43,1312" transform="translate(-116.42 -560.39)"/></g><g class="cls-7"><path class="cls-2" d="M373.94,1312s79.07-21.08,110.7-31.62,58-31.63,79.07-52.72,485-326.81,574.56-379.52,131.78-58,163.4-52.71,94.88,26.35,116,58,21.08,52.71,26.36,63.25,268.83,337.36,289.91,363.72,52.71,68.52,42.17,116-36.9,58-63.25,68.53S1594.22,1536,1594.22,1536s63.26,26.36,79.07,79.07,0,84.34-10.54,100.15-26.36,21.09-31.63,31.63-10.54,47.44-42.17,63.25-152.86,15.82-179.22,10.54-216.12,31.63-253,47.44-147.6,10.55-163.41,5.28-116-15.82-137-21.09-195-58-226.66-105.42" transform="translate(-116.42 -560.39)"/><line class="cls-3" x1="1441.18" y1="46.2" x2="366.79" y2="46.2"/><circle class="cls-4" cx="1414" cy="46.2" r="38.05"/><path class="cls-5" d="M1594.22,1536s63.26,26.36,79.07,79.07,0,84.34-10.54,100.15-26.36,21.09-31.63,31.63-10.54,47.44-42.17,63.25-152.86,15.82-179.22,10.54-216.12,31.63-253,47.44-147.6,10.55-163.41,5.28-116-15.82-137-21.09-195-58-226.66-105.42" transform="translate(-116.42 -560.39)"/><path class="cls-4" d="M907.1,946.53c21-14.17,192.25-117.48,217.54-127.7s52.28-17,74.2,1.71,92.75,95.34,138.28,182.17,136.59,270.7,146.71,321.78,20.24,107.26-50.59,153.23-72.51,44.26-109.61,45.12-72.51-19.58-87.69-29.8-50.59-20.43-60.71-30.64l-40.47-40.87c-10.12-10.21-126.48-240-141.65-270.7s-70.83-127.69-86-143c-5.05-5.11-20.23,10.21-20.23,10.21S876.75,967,907.1,946.53Z" transform="translate(-116.42 -560.39)"/><path class="cls-5" d="M1486.17,1405.58s31.62,11.86,58,6.59,63.25-15.82,79.07-15.82" transform="translate(-116.42 -560.39)"/><path class="cls-5" d="M1449.27,1280.39s21.08-31.63,26.35-47.44,0-73.8,0-73.8" transform="translate(-116.42 -560.39)"/><path class="cls-5" d="M1183.07,1457c31.63,15.82,150.23,102.79,181.86,87s63.25-15.82,110.69-21.09,84.34,21.09,121.24,15.82,89.61-63.26,116-73.8,52.71-21.09,63.25-68.53-21.08-89.61-42.17-116S1449.27,927.22,1444,916.67s-5.28-31.62-26.36-63.25-84.34-52.71-116-58-73.79,0-163.4,52.71-553.48,358.44-574.56,379.52-47.44,42.17-79.07,52.72S373.94,1312,373.94,1312" transform="translate(-116.42 -560.39)"/></g><path class="cls-2" d="M118.46,1312s79.07-21.08,110.69-31.62,58-31.63,79.07-52.72S793.17,900.86,882.78,848.15s131.78-58,163.41-52.71,94.88,26.35,116,58,21.08,52.71,26.35,63.25,268.83,337.36,289.92,363.72,52.71,68.52,42.17,116-36.9,58-63.26,68.53-118.6,71.16-118.6,71.16,63.25,26.36,79.07,79.07,0,84.34-10.54,100.15-26.36,21.09-31.63,31.63-10.54,47.44-42.17,63.25-152.87,15.82-179.22,10.54-216.12,31.63-253,47.44-147.59,10.55-163.41,5.28-116-15.82-137.05-21.09-195-58-226.66-105.42c0,0-110.69,21.08-253,94.88" transform="translate(-116.42 -560.39)"/><line class="cls-3" x1="1185.69" y1="46.2" x2="111.31" y2="46.2"/><polygon class="cls-4" points="120.24 0 40.22 46.2 120.24 92.41 120.24 0"/><circle class="cls-4" cx="1158.51" cy="46.2" r="38.05"/><path class="cls-5" d="M1338.74,1536s63.25,26.36,79.07,79.07,0,84.34-10.54,100.15-26.36,21.09-31.63,31.63-10.54,47.44-42.17,63.25-152.87,15.82-179.22,10.54-216.12,31.63-253,47.44-147.59,10.55-163.41,5.28-116-15.82-137.05-21.09-195-58-226.66-105.42c0,0-110.69,21.08-253,94.88" transform="translate(-116.42 -560.39)"/><path class="cls-4" d="M651.62,946.53c21-14.17,192.24-117.48,217.54-127.7s52.27-17,74.2,1.71,92.74,95.34,138.27,182.17,136.6,270.7,146.72,321.78,20.23,107.26-50.59,153.23-72.52,44.26-109.62,45.12-72.51-19.58-87.69-29.8-50.59-20.43-60.7-30.64l-40.48-40.87c-10.11-10.21-126.47-240-141.65-270.7s-70.82-127.69-86-143c-5.06-5.11-20.24,10.21-20.24,10.21S621.27,967,651.62,946.53Z" transform="translate(-116.42 -560.39)"/><path class="cls-5" d="M1230.68,1405.58s31.63,11.86,58,6.59,63.26-15.82,79.07-15.82" transform="translate(-116.42 -560.39)"/><path class="cls-5" d="M1193.78,1280.39s21.09-31.63,26.36-47.44,0-73.8,0-73.8" transform="translate(-116.42 -560.39)"/><path class="cls-5" d="M927.59,1457c31.62,15.82,150.23,102.79,181.85,87s63.26-15.82,110.7-21.09,84.34,21.09,121.24,15.82,89.61-63.26,116-73.8,52.71-21.09,63.26-68.53-21.09-89.61-42.17-116-284.65-353.17-289.92-363.72-5.27-31.62-26.35-63.25-84.34-52.71-116-58-73.8,0-163.41,52.71-553.47,358.44-574.56,379.52-47.44,42.17-79.07,52.72S118.46,1312,118.46,1312" transform="translate(-116.42 -560.39)"/></svg>