<svg id="Layer_1" data-name="Layer 1" xmlns="http://www.w3.org/2000/svg" viewBox="0 0 2242.14 1431.17"><defs><style>.cls-1{opacity:0.15;}.cls-2{fill:#fff;}.cls-3,.cls-4,.cls-6{fill:none;stroke-miterlimit:10;}.cls-3,.cls-6{stroke:#666;}.cls-3{stroke-width:35.2px;}.cls-4{stroke:#4d4d4d;stroke-width:11.73px;}.cls-5{fill:#666;}.cls-6{stroke-width:17.07px;}.cls-7{opacity:0.36;}.cls-8{opacity:0.75;}</style></defs><title>push</title><g class="cls-1"><path class="cls-2" d="M93.72,1276.4s85.33-22.75,119.46-34.13,62.58-34.13,85.33-56.89,523.34-352.68,620-409.57,142.22-62.57,176.35-56.88S1197.29,747.37,1220,781.5s22.76,56.89,28.44,68.26,290.12,364.07,312.87,392.51,56.89,74,45.51,125.15S1567,1430,1538.6,1441.37s-128,76.79-128,76.79,68.26,28.44,85.32,85.33,0,91-11.37,108.08-28.45,22.75-34.13,34.13-11.38,51.2-45.51,68.26-165,17.07-193.41,11.38-233.23,34.13-273,51.19-159.27,11.38-176.34,5.69-125.15-17.06-147.9-22.75-210.47-62.57-244.6-113.77c0,0-119.46,22.75-273,102.39" transform="translate(-91.53 -465.27)"/><line class="cls-3" x1="133.32" y1="49.86" x2="1292.76" y2="49.86"/><path class="cls-4" d="M179.24,515.14" transform="translate(-91.53 -465.27)"/><circle class="cls-5" cx="162.65" cy="49.86" r="41.06"/><path class="cls-6" d="M1410.61,1518.16s68.26,28.44,85.32,85.33,0,91-11.37,108.08-28.45,22.75-34.13,34.13-11.38,51.2-45.51,68.26" transform="translate(-91.53 -465.27)"/><path class="cls-5" d="M669.09,882c22.71-15.29,207.46-126.78,234.76-137.8s56.41-18.37,80.07,1.84S1084,848.91,1133.15,942.61s147.4,292.13,158.32,347.25,21.84,115.75-54.59,165.36-78.26,47.77-118.29,48.69-78.25-21.13-94.63-32.15-54.6-22-65.52-33.07l-43.67-44.1c-10.92-11-136.49-259.06-152.87-292.13s-76.43-137.8-92.81-154.34c-5.46-5.51-21.84,11-21.84,11S636.33,904,669.09,882Z" transform="translate(-91.53 -465.27)"/><path class="cls-6" d="M1294,1377.37s34.13,12.8,62.58,7.11,68.26-17.06,85.32-17.06" transform="translate(-91.53 -465.27)"/><path class="cls-6" d="M1254.17,1242.27s22.76-34.13,28.45-51.2,0-79.64,0-79.64" transform="translate(-91.53 -465.27)"/><path class="cls-6" d="M966.91,1432.83c34.13,17.07,162.12,110.93,196.25,93.86s68.26-17.06,119.46-22.75,91,22.75,130.83,17.06,96.7-68.26,125.15-79.63,56.88-22.76,68.26-73.95-22.76-96.71-45.51-125.15-307.18-381.13-312.87-392.51-5.68-34.13-28.44-68.26-91-56.88-125.14-62.57-79.64,0-176.35,56.88-597.29,386.82-620,409.57-51.2,45.51-85.33,56.89S93.72,1276.4,93.72,1276.4" transform="translate(-91.53 -465.27)"/><path class="cls-4" d="M179.24,515.14" transform="translate(-91.53 -465.27)"/></g><g class="cls-7"><path class="cls-2" d="M337.56,1276.4s85.33-22.75,119.46-34.13,62.58-34.13,85.33-56.89,523.34-352.68,620-409.57,142.21-62.57,176.35-56.88,102.39,28.44,125.14,62.57,22.76,56.89,28.44,68.26,290.12,364.07,312.87,392.51,56.89,74,45.51,125.15-39.82,62.57-68.26,73.95-128,76.79-128,76.79,68.26,28.44,85.32,85.33,0,91-11.37,108.08-28.45,22.75-34.13,34.13-11.38,51.2-45.51,68.26-165,17.07-193.41,11.38-233.23,34.13-273,51.19S1023,1887.91,1006,1882.22s-125.15-17.06-147.9-22.75-210.47-62.57-244.6-113.77c0,0-119.46,22.75-273,102.39" transform="translate(-91.53 -465.27)"/><line class="cls-3" x1="372" y1="49.86" x2="1531.43" y2="49.86"/><path class="cls-4" d="M417.92,515.14" transform="translate(-91.53 -465.27)"/><circle class="cls-5" cx="401.33" cy="49.86" r="41.06"/><path class="cls-6" d="M1649.28,1518.16s68.26,28.44,85.33,85.33,0,91-11.38,108.08-28.44,22.75-34.13,34.13-11.38,51.2-45.51,68.26-165,17.07-193.41,11.38" transform="translate(-91.53 -465.27)"/><path class="cls-5" d="M907.76,882c22.72-15.29,207.46-126.78,234.76-137.8s56.42-18.37,80.07,1.84,100.09,102.89,149.23,196.59,147.41,292.13,158.32,347.25,21.84,115.75-54.59,165.36-78.25,47.77-118.29,48.69-78.25-21.13-94.63-32.15-54.59-22-65.51-33.07l-43.68-44.1c-10.92-11-136.49-259.06-152.86-292.13s-76.44-137.8-92.82-154.34c-5.46-5.51-21.83,11-21.83,11S875,904,907.76,882Z" transform="translate(-91.53 -465.27)"/><path class="cls-6" d="M1532.67,1377.37s34.13,12.8,62.57,7.11,68.26-17.06,85.33-17.06" transform="translate(-91.53 -465.27)"/><path class="cls-6" d="M1492.85,1242.27s22.75-34.13,28.44-51.2,0-79.64,0-79.64" transform="translate(-91.53 -465.27)"/><path class="cls-6" d="M1205.58,1432.83c34.13,17.07,162.12,110.93,196.25,93.86s68.26-17.06,119.46-22.75,91,22.75,130.83,17.06,96.71-68.26,125.15-79.63,56.88-22.76,68.26-73.95-22.75-96.71-45.51-125.15-307.17-381.13-312.86-392.51-5.69-34.13-28.44-68.26-91-56.88-125.15-62.57-79.64,0-176.34,56.88-597.29,386.82-620.05,409.57-51.19,45.51-85.32,56.89S332.4,1276.4,332.4,1276.4" transform="translate(-91.53 -465.27)"/><path class="cls-4" d="M417.92,515.14" transform="translate(-91.53 -465.27)"/></g><g class="cls-8"><path class="cls-2" d="M571.07,1276.4s85.33-22.75,119.46-34.13,62.57-34.13,85.33-56.89,523.33-352.68,620-409.57,142.21-62.57,176.34-56.88,102.39,28.44,125.15,62.57,22.75,56.89,28.44,68.26,290.11,364.07,312.87,392.51,56.88,74,45.5,125.15-39.82,62.57-68.26,73.95-128,76.79-128,76.79,68.26,28.44,85.33,85.33,0,91-11.38,108.08-28.44,22.75-34.13,34.13-11.38,51.2-45.51,68.26-165,17.07-193.4,11.38-233.23,34.13-273,51.19-159.28,11.38-176.34,5.69-125.15-17.06-147.9-22.75S881.09,1796.9,847,1745.7c0,0-119.46,22.75-273.05,102.39" transform="translate(-91.53 -465.27)"/><line class="cls-3" x1="610.67" y1="49.86" x2="1770.11" y2="49.86"/><path class="cls-4" d="M656.59,515.14" transform="translate(-91.53 -465.27)"/><circle class="cls-5" cx="640" cy="49.86" r="41.06"/><path class="cls-6" d="M1888,1518.16s68.26,28.44,85.33,85.33,0,91-11.38,108.08-28.44,22.75-34.13,34.13-11.38,51.2-45.51,68.26-165,17.07-193.4,11.38" transform="translate(-91.53 -465.27)"/><path class="cls-5" d="M1146.44,882c22.71-15.29,207.46-126.78,234.75-137.8s56.42-18.37,80.08,1.84,100.09,102.89,149.22,196.59,147.41,292.13,158.33,347.25,21.84,115.75-54.6,165.36S1636,1503,1595.93,1503.91s-78.25-21.13-94.63-32.15-54.59-22-65.51-33.07l-43.68-44.1c-10.92-11-136.48-259.06-152.86-292.13s-76.43-137.8-92.81-154.34c-5.46-5.51-21.84,11-21.84,11S1113.68,904,1146.44,882Z" transform="translate(-91.53 -465.27)"/><path class="cls-6" d="M1771.34,1377.37s34.13,12.8,62.57,7.11,68.26-17.06,85.33-17.06" transform="translate(-91.53 -465.27)"/><path class="cls-6" d="M1731.52,1242.27s22.75-34.13,28.44-51.2,0-79.64,0-79.64" transform="translate(-91.53 -465.27)"/><path class="cls-6" d="M1444.25,1432.83c34.13,17.07,162.12,110.93,196.25,93.86s68.26-17.06,119.46-22.75,91,22.75,130.84,17.06,96.7-68.26,125.14-79.63,56.89-22.76,68.26-73.95-22.75-96.71-45.5-125.15-307.18-381.13-312.87-392.51-5.69-34.13-28.44-68.26-91-56.88-125.15-62.57-79.64,0-176.34,56.88-597.29,386.82-620,409.57-51.2,45.51-85.33,56.89-119.46,34.13-119.46,34.13" transform="translate(-91.53 -465.27)"/><path class="cls-4" d="M656.59,515.14" transform="translate(-91.53 -465.27)"/></g><path class="cls-2" d="M809.74,1276.4s85.33-22.75,119.46-34.13,62.57-34.13,85.33-56.89,523.34-352.68,620-409.57,142.21-62.57,176.34-56.88,102.4,28.44,125.15,62.57,22.75,56.89,28.44,68.26,290.12,364.07,312.87,392.51,56.88,74,45.51,125.15-39.82,62.57-68.26,73.95-128,76.79-128,76.79,68.27,28.44,85.33,85.33,0,91-11.38,108.08-28.44,22.75-34.13,34.13-11.37,51.2-45.5,68.26-165,17.07-193.41,11.38-233.23,34.13-273,51.19-159.28,11.38-176.34,5.69-125.15-17.06-147.9-22.75-210.47-62.57-244.61-113.77c0,0-119.45,22.75-273,102.39" transform="translate(-91.53 -465.27)"/><polygon class="cls-5" points="2007.9 99.72 2094.25 49.87 2007.9 0 2007.9 99.72"/><line class="cls-3" x1="849.34" y1="49.86" x2="2008.78" y2="49.86"/><path class="cls-4" d="M895.26,515.14" transform="translate(-91.53 -465.27)"/><circle class="cls-5" cx="878.67" cy="49.86" r="41.06"/><path class="cls-6" d="M2126.62,1518.16s68.27,28.44,85.33,85.33,0,91-11.38,108.08-28.44,22.75-34.13,34.13-11.37,51.2-45.5,68.26-165,17.07-193.41,11.38-233.23,34.13-273,51.19-159.28,11.38-176.34,5.69-125.15-17.06-147.9-22.75-210.47-62.57-244.61-113.77c0,0-119.45,22.75-273,102.39" transform="translate(-91.53 -465.27)"/><path class="cls-5" d="M1385.11,882c22.71-15.29,207.46-126.78,234.76-137.8s56.41-18.37,80.07,1.84S1800,848.91,1849.17,942.61s147.4,292.13,158.32,347.25,21.84,115.75-54.59,165.36-78.26,47.77-118.29,48.69-78.26-21.13-94.63-32.15-54.6-22-65.52-33.07l-43.67-44.1c-10.92-11-136.49-259.06-152.87-292.13s-76.43-137.8-92.81-154.34c-5.46-5.51-21.84,11-21.84,11S1352.35,904,1385.11,882Z" transform="translate(-91.53 -465.27)"/><path class="cls-6" d="M2010,1377.37s34.13,12.8,62.57,7.11,68.27-17.06,85.33-17.06" transform="translate(-91.53 -465.27)"/><path class="cls-6" d="M1970.19,1242.27s22.76-34.13,28.44-51.2,0-79.64,0-79.64" transform="translate(-91.53 -465.27)"/><path class="cls-6" d="M1682.92,1432.83c34.13,17.07,162.13,110.93,196.26,93.86s68.26-17.06,119.45-22.75,91,22.75,130.84,17.06,96.7-68.26,125.15-79.63,56.88-22.76,68.26-73.95-22.76-96.71-45.51-125.15S1970.19,861.14,1964.5,849.76s-5.69-34.13-28.44-68.26-91-56.88-125.15-62.57-79.63,0-176.34,56.88-597.29,386.82-620,409.57-51.2,45.51-85.33,56.89-119.46,34.13-119.46,34.13" transform="translate(-91.53 -465.27)"/><path class="cls-4" d="M895.26,515.14" transform="translate(-91.53 -465.27)"/></svg>