<svg id="Layer_1" data-name="Layer 1" xmlns="http://www.w3.org/2000/svg" viewBox="0 0 1989.34 1880.56"><defs><style>.cls-1{opacity:0.15;}.cls-2{fill:#fff;}.cls-3,.cls-5,.cls-7{fill:none;stroke-miterlimit:10;}.cls-3,.cls-5{stroke:#666;}.cls-3{stroke-width:18.44px;}.cls-4{fill:#666;}.cls-5{stroke-width:36.89px;}.cls-6{opacity:0.36;}.cls-7{stroke:#4d4d4d;stroke-width:12.3px;}.cls-8{opacity:0.75;}</style></defs><title>swipe_down</title><g class="cls-1"><path class="cls-2" d="M1763.55,1329.92c-24.59-36.89-86.07-258.22-92.22-270.51s-27.66-144.48-30.74-172.15-24.59-129.1-86.07-295.1-166-172.14-184.44-178.29S1314.75,352.39,1284,334s-135.25-12.3-153.7-12.3-79.92-61.48-110.66-73.78-86.07-12.29-123,0-58.41,70.71-79.92,79.93-144.48-9.22-178.3,0-129.1,86.07-135.25,147.55,15.37,138.33,15.37,138.33L481.7,785.82s-40-64.55-52.26-76.85-43-12.29-67.62,6.15-172.15,166-178.3,215.18,49.19,98.37,92.22,153.7,55.34,166,159.85,215.18S853.65,1495.91,909,1532.8s92.22,110.66,92.22,110.66" transform="translate(-173.83 -229.43)"/><path class="cls-3" d="M1001.2,1643.46S964.32,1569.69,909,1532.8s-368.87-184.44-473.39-233.62S318.78,1139.33,275.74,1084s-98.36-104.52-92.22-153.7,153.7-196.74,178.3-215.18,55.33-18.44,67.62-6.15,52.26,76.85,52.26,76.85" transform="translate(-173.83 -229.43)"/><path class="cls-3" d="M518.59,613.68s-21.52-76.85-15.37-138.33S604.66,337,638.47,327.8s156.78,9.22,178.3,0,43-67.63,79.92-79.93,92.22-12.29,123,0,92.22,73.78,110.66,73.78,123-6.15,153.7,12.3,67.63,73.77,86.07,79.92,123,12.3,184.44,178.29,83,267.44,86.07,295.1,24.59,159.85,30.74,172.15S1739,1293,1763.55,1329.92" transform="translate(-173.83 -229.43)"/><path class="cls-3" d="M346.45,835s79.92,6.15,123,49.19,49.18,43,49.18,55.33-43,123-43,123" transform="translate(-173.83 -229.43)"/><path class="cls-4" d="M472.48,887.26s0-196.73,18.44-233.62,55.33-129.11,190.59-153.7,602.5-18.44,694.72,24.59,135.26,98.37,135.26,147.55-49.19,92.22-73.78,98.37S853.65,752,749.14,764.3s-141.41,43-166,73.78-18.44,61.48-24.59,73.77-18.44,30.74-30.74,30.74S472.48,887.26,472.48,887.26Z" transform="translate(-173.83 -229.43)"/><line class="cls-5" x1="1937.08" y1="112.35" x2="1937.08" y2="1327.49"/><circle class="cls-4" cx="1937.08" cy="143.09" r="43.04"/></g><g class="cls-6"><path class="cls-2" d="M1763.55,1477.47c-24.59-36.89-86.07-258.22-92.22-270.51s-27.66-144.48-30.74-172.15-24.59-129.1-86.07-295.1-166-172.14-184.44-178.29-55.33-61.48-86.07-79.92-135.25-12.3-153.7-12.3-79.92-61.48-110.66-73.77-86.07-12.3-123,0-58.41,70.7-79.92,79.92-144.48-9.22-178.3,0S509.37,561.42,503.22,622.9s15.37,138.33,15.37,138.33L481.7,933.37s-40-64.55-52.26-76.85-43-12.29-67.62,6.15-172.15,166-178.3,215.18,49.19,98.37,92.22,153.7,55.34,166,159.85,215.18S853.65,1643.46,909,1680.35,1001.2,1791,1001.2,1791" transform="translate(-173.83 -229.43)"/><path class="cls-3" d="M1001.2,1791s-36.88-73.77-92.22-110.66-368.87-184.44-473.39-233.62-116.81-159.85-159.85-215.18-98.36-104.52-92.22-153.7,153.7-196.74,178.3-215.18,55.33-18.44,67.62-6.15,52.26,76.85,52.26,76.85" transform="translate(-173.83 -229.43)"/><path class="cls-3" d="M518.59,761.23s-21.52-76.85-15.37-138.33S604.66,484.57,638.47,475.35s156.78,9.22,178.3,0,43-67.63,79.92-79.92,92.22-12.3,123,0,92.22,73.77,110.66,73.77,123-6.15,153.7,12.3,67.63,73.77,86.07,79.92,123,12.3,184.44,178.29,83,267.44,86.07,295.1,24.59,159.85,30.74,172.15,67.63,233.62,92.22,270.51" transform="translate(-173.83 -229.43)"/><path class="cls-3" d="M346.45,982.56s79.92,6.14,123,49.18,49.18,43,49.18,55.33-43,123-43,123" transform="translate(-173.83 -229.43)"/><path class="cls-4" d="M472.48,1034.81s0-196.73,18.44-233.62,55.33-129.11,190.59-153.7,602.5-18.44,694.72,24.59,135.26,98.37,135.26,147.56-49.19,92.21-73.78,98.36-584.06-18.44-688.57-6.15-141.41,43-166,73.78-18.44,61.48-24.59,73.78-18.44,30.74-30.74,30.74S472.48,1034.81,472.48,1034.81Z" transform="translate(-173.83 -229.43)"/><line class="cls-5" x1="1937.08" y1="259.9" x2="1937.08" y2="1475.04"/><path class="cls-7" d="M2110.91,441.54" transform="translate(-173.83 -229.43)"/><circle class="cls-4" cx="1937.08" cy="290.64" r="43.04"/><path class="cls-7" d="M2110.91,441.54" transform="translate(-173.83 -229.43)"/></g><g class="cls-8"><path class="cls-2" d="M1763.55,1625c-24.59-36.89-86.07-258.22-92.22-270.51s-27.66-144.48-30.74-172.15-24.59-129.1-86.07-295.1-166-172.14-184.44-178.29-55.33-61.48-86.07-79.92-135.25-12.3-153.7-12.3-79.92-61.48-110.66-73.77-86.07-12.3-123,0-58.41,70.7-79.92,79.92-144.48-9.22-178.3,0S509.37,709,503.22,770.45s15.37,138.33,15.37,138.33L481.7,1080.92s-40-64.55-52.26-76.85-43-12.29-67.62,6.15-172.15,166-178.3,215.18,49.19,98.37,92.22,153.7,55.34,166,159.85,215.18S853.65,1791,909,1827.9s92.22,110.66,92.22,110.66" transform="translate(-173.83 -229.43)"/><path class="cls-3" d="M1001.2,1938.56S964.32,1864.79,909,1827.9s-368.87-184.44-473.39-233.62S318.78,1434.43,275.74,1379.1s-98.36-104.52-92.22-153.7,153.7-196.73,178.3-215.18,55.33-18.44,67.62-6.15,52.26,76.85,52.26,76.85" transform="translate(-173.83 -229.43)"/><path class="cls-3" d="M518.59,908.78s-21.52-76.85-15.37-138.33S604.66,632.12,638.47,622.9s156.78,9.22,178.3,0,43-67.63,79.92-79.92,92.22-12.3,123,0,92.22,73.77,110.66,73.77,123-6.15,153.7,12.3,67.63,73.77,86.07,79.92,123,12.3,184.44,178.29,83,267.44,86.07,295.1,24.59,159.85,30.74,172.15S1739,1588.13,1763.55,1625" transform="translate(-173.83 -229.43)"/><path class="cls-3" d="M346.45,1130.11s79.92,6.15,123,49.18,49.18,43,49.18,55.33-43,123-43,123" transform="translate(-173.83 -229.43)"/><path class="cls-4" d="M472.48,1182.36s0-196.73,18.44-233.62S546.25,819.64,681.51,795s602.5-18.44,694.72,24.6S1511.49,918,1511.49,967.19s-49.19,92.22-73.78,98.36-584.06-18.44-688.57-6.14-141.41,43-166,73.77-18.44,61.48-24.59,73.78-18.44,30.74-30.74,30.74S472.48,1182.36,472.48,1182.36Z" transform="translate(-173.83 -229.43)"/><line class="cls-5" x1="1937.08" y1="407.45" x2="1937.08" y2="1622.59"/><path class="cls-7" d="M2110.91,589.09" transform="translate(-173.83 -229.43)"/><circle class="cls-4" cx="1937.08" cy="438.19" r="43.04"/><path class="cls-7" d="M2110.91,589.09" transform="translate(-173.83 -229.43)"/></g><path class="cls-2" d="M1763.55,1792.32c-24.59-36.89-86.07-258.22-92.22-270.51s-27.66-144.48-30.74-172.14-24.59-129.11-86.07-295.11-166-172.14-184.44-178.29-55.33-61.48-86.07-79.92-135.25-12.3-153.7-12.3-79.92-61.48-110.66-73.77-86.07-12.3-123,0S838.28,781,816.77,790.2s-144.48-9.22-178.3,0-129.1,86.07-135.25,147.55,15.37,138.33,15.37,138.33L481.7,1248.22s-40-64.55-52.26-76.85-43-12.29-67.62,6.15-172.15,166-178.3,215.18,49.19,98.37,92.22,153.7,55.34,166,159.85,215.18S853.65,1958.31,909,1995.2s92.22,110.67,92.22,110.67" transform="translate(-173.83 -229.43)"/><path class="cls-3" d="M1001.2,2105.87S964.32,2032.09,909,1995.2s-368.87-184.44-473.39-233.62S318.78,1601.73,275.74,1546.4s-98.36-104.51-92.22-153.7,153.7-196.73,178.3-215.18,55.33-18.44,67.62-6.15,52.26,76.85,52.26,76.85" transform="translate(-173.83 -229.43)"/><path class="cls-3" d="M518.59,1076.08s-21.52-76.85-15.37-138.33S604.66,799.42,638.47,790.2s156.78,9.22,178.3,0,43-67.63,79.92-79.92,92.22-12.3,123,0,92.22,73.77,110.66,73.77,123-6.14,153.7,12.3,67.63,73.77,86.07,79.92,123,12.3,184.44,178.29,83,267.44,86.07,295.11,24.59,159.84,30.74,172.14,67.63,233.62,92.22,270.51" transform="translate(-173.83 -229.43)"/><path class="cls-3" d="M346.45,1297.41s79.92,6.15,123,49.18,49.18,43,49.18,55.33-43,123-43,123" transform="translate(-173.83 -229.43)"/><path class="cls-4" d="M472.48,1349.67s0-196.74,18.44-233.63,55.33-129.1,190.59-153.7,602.5-18.44,694.72,24.6,135.26,98.36,135.26,147.55-49.19,92.22-73.78,98.36-584.06-18.44-688.57-6.14-141.41,43-166,73.77-18.44,61.48-24.59,73.78S540.11,1405,527.81,1405,472.48,1349.67,472.48,1349.67Z" transform="translate(-173.83 -229.43)"/><line class="cls-5" x1="1937.08" y1="574.75" x2="1937.08" y2="1789.89"/><polygon class="cls-4" points="1884.82 1779.78 1937.07 1870.29 1989.34 1779.78 1884.82 1779.78"/><path class="cls-7" d="M2110.91,756.39" transform="translate(-173.83 -229.43)"/><circle class="cls-4" cx="1937.08" cy="605.49" r="43.04"/><path class="cls-7" d="M2110.91,756.39" transform="translate(-173.83 -229.43)"/></svg>