<svg id="Layer_1" data-name="Layer 1" xmlns="http://www.w3.org/2000/svg" viewBox="0 0 2133.31 1410.17"><defs><style>.cls-1{opacity:0.15;}.cls-2{fill:#fff;}.cls-3,.cls-5,.cls-6{fill:none;stroke-miterlimit:10;}.cls-3,.cls-5{stroke:#666;}.cls-3{stroke-width:15.73px;}.cls-4{fill:#666;}.cls-5{stroke-width:31.46px;}.cls-6{stroke:#4d4d4d;stroke-width:10.49px;}.cls-7{opacity:0.36;}.cls-8{opacity:0.75;}</style></defs><title>swipe_right</title><g class="cls-1"><path class="cls-2" d="M1476.31,1702.63c-21-31.47-73.41-220.24-78.65-230.73s-23.6-123.23-26.22-146.83-21-110.12-73.42-251.7S1156.44,926.54,1140.71,921.3s-47.2-52.44-73.41-68.17-115.37-10.49-131.1-10.49S868,790.2,841.81,779.71s-73.41-10.48-104.87,0S687.12,840,668.77,847.88s-123.23-7.86-152.07,0S406.58,921.3,401.33,973.74s13.11,118,13.11,118L383,1238.55s-34.09-55.06-44.57-65.55-36.71-10.49-57.69,5.24S133.9,1319.83,128.65,1361.78s41.95,83.9,78.66,131.09,47.2,141.59,136.34,183.54,356.58,167.8,403.77,199.26,78.66,94.39,78.66,94.39" transform="translate(-120.39 -563.41)"/><path class="cls-3" d="M826.08,1970.06s-31.46-62.93-78.66-94.39-314.63-157.31-403.77-199.26S244,1540.07,207.31,1492.87s-83.9-89.14-78.66-131.09,131.1-167.8,152.07-183.54,47.2-15.73,57.69-5.24S383,1238.55,383,1238.55" transform="translate(-120.39 -563.41)"/><path class="cls-3" d="M414.44,1091.72s-18.35-65.55-13.11-118,86.52-118,115.37-125.86,133.71,7.87,152.07,0,36.7-57.68,68.17-68.17,78.65-10.48,104.87,0,78.66,62.93,94.39,62.93,104.88-5.24,131.1,10.49,57.68,62.92,73.41,68.17,104.87,10.49,157.31,152.07,70.79,228.1,73.42,251.7,21,136.34,26.22,146.83,57.68,199.26,78.65,230.73" transform="translate(-120.39 -563.41)"/><path class="cls-3" d="M267.61,1280.5s68.17,5.24,104.88,42,41.95,36.71,41.95,47.19-36.71,104.88-36.71,104.88" transform="translate(-120.39 -563.41)"/><path class="cls-4" d="M375.11,1325.07s0-167.8,15.73-199.26S438,1015.69,553.4,994.71s513.9-15.73,592.55,21,115.37,83.9,115.37,125.85-42,78.65-62.93,83.9-498.16-15.73-587.31-5.25-120.6,36.71-141.58,62.93-15.73,52.44-21,62.93-15.74,26.22-26.22,26.22S375.11,1325.07,375.11,1325.07Z" transform="translate(-120.39 -563.41)"/><line class="cls-5" x1="176.2" y1="44.57" x2="1212.63" y2="44.57"/><path class="cls-6" d="M255.82,608" transform="translate(-120.39 -563.41)"/><circle class="cls-4" cx="202.42" cy="44.57" r="36.71"/><path class="cls-6" d="M255.82,608" transform="translate(-120.39 -563.41)"/></g><g class="cls-7"><path class="cls-2" d="M1733.26,1702.63c-21-31.47-73.41-220.24-78.66-230.73s-23.6-123.23-26.22-146.83-21-110.12-73.41-251.7S1413.39,926.54,1397.66,921.3s-47.2-52.44-73.42-68.17-115.36-10.49-131.09-10.49-68.17-52.44-94.39-62.93-73.41-10.48-104.88,0S944.07,840,925.71,847.88s-123.23-7.86-152.07,0S663.52,921.3,658.28,973.74s13.11,118,13.11,118l-31.46,146.83s-34.09-55.06-44.58-65.55-36.7-10.49-57.68,5.24S390.84,1319.83,385.6,1361.78s41.95,83.9,78.66,131.09,47.19,141.59,136.34,183.54,356.58,167.8,403.77,199.26,78.66,94.39,78.66,94.39" transform="translate(-120.39 -563.41)"/><path class="cls-3" d="M1083,1970.06s-31.47-62.93-78.66-94.39S689.74,1718.36,600.6,1676.41,501,1540.07,464.26,1492.87s-83.9-89.14-78.66-131.09S516.7,1194,537.67,1178.24s47.2-15.73,57.68-5.24,44.58,65.55,44.58,65.55" transform="translate(-120.39 -563.41)"/><path class="cls-3" d="M671.39,1091.72s-18.36-65.55-13.11-118,86.52-118,115.36-125.86,133.72,7.87,152.07,0,36.71-57.68,68.17-68.17,78.66-10.48,104.88,0,78.66,62.93,94.39,62.93,104.87-5.24,131.09,10.49,57.68,62.92,73.42,68.17,104.87,10.49,157.31,152.07,70.79,228.1,73.41,251.7,21,136.34,26.22,146.83,57.68,199.26,78.66,230.73" transform="translate(-120.39 -563.41)"/><path class="cls-3" d="M524.56,1280.5s68.17,5.24,104.88,42,41.95,36.71,41.95,47.19-36.71,104.88-36.71,104.88" transform="translate(-120.39 -563.41)"/><path class="cls-4" d="M632.06,1325.07s0-167.8,15.73-199.26,47.2-110.12,162.56-131.1,513.89-15.73,592.55,21,115.36,83.9,115.36,125.85-42,78.65-62.92,83.9-498.16-15.73-587.31-5.25-120.61,36.71-141.58,62.93-15.73,52.44-21,62.93-15.73,26.22-26.22,26.22S632.06,1325.07,632.06,1325.07Z" transform="translate(-120.39 -563.41)"/><line class="cls-5" x1="433.14" y1="44.57" x2="1469.57" y2="44.57"/><path class="cls-6" d="M512.76,608" transform="translate(-120.39 -563.41)"/><circle class="cls-4" cx="459.36" cy="44.57" r="36.71"/><path class="cls-6" d="M512.76,608" transform="translate(-120.39 -563.41)"/></g><g class="cls-8"><path class="cls-3" d="M1340,1970.06s-31.46-62.93-78.65-94.39-314.63-157.31-403.78-199.26-99.63-136.34-136.34-183.54-83.9-89.14-78.65-131.09S773.64,1194,794.62,1178.24s47.19-15.73,57.68-5.24,44.57,65.55,44.57,65.55" transform="translate(-120.39 -563.41)"/><path class="cls-3" d="M928.33,1091.72s-18.35-65.55-13.1-118,86.52-118,115.36-125.86,133.72,7.87,152.07,0,36.71-57.68,68.17-68.17,78.66-10.48,104.87,0,78.66,62.93,94.39,62.93,104.88-5.24,131.1,10.49,57.68,62.92,73.41,68.17,104.88,10.49,157.32,152.07,70.79,228.1,73.41,251.7,21,136.34,26.22,146.83,57.68,199.26,78.66,230.73" transform="translate(-120.39 -563.41)"/><path class="cls-3" d="M781.51,1280.5s68.17,5.24,104.87,42,42,36.71,42,47.19-36.7,104.88-36.7,104.88" transform="translate(-120.39 -563.41)"/><path class="cls-4" d="M889,1325.07s0-167.8,15.73-199.26,47.19-110.12,162.56-131.1,513.89-15.73,592.55,21,115.36,83.9,115.36,125.85-42,78.65-62.93,83.9-498.16-15.73-587.3-5.25-120.61,36.71-141.59,62.93-15.73,52.44-21,62.93-15.73,26.22-26.22,26.22S889,1325.07,889,1325.07Z" transform="translate(-120.39 -563.41)"/><line class="cls-5" x1="690.09" y1="44.57" x2="1726.52" y2="44.57"/><path class="cls-6" d="M769.71,608" transform="translate(-120.39 -563.41)"/><circle class="cls-4" cx="716.31" cy="44.57" r="36.71"/><path class="cls-6" d="M769.71,608" transform="translate(-120.39 -563.41)"/></g><path class="cls-2" d="M2247.15,1702.63c-21-31.47-73.41-220.24-78.65-230.73s-23.6-123.23-26.22-146.83-21-110.12-73.42-251.7S1927.28,926.54,1911.55,921.3s-47.2-52.44-73.41-68.17-115.37-10.49-131.1-10.49-68.17-52.44-94.39-62.93-73.41-10.48-104.87,0S1458,840,1439.61,847.88s-123.23-7.86-152.07,0-110.12,73.42-115.37,125.86,13.11,118,13.11,118l-31.46,146.83s-34.09-55.06-44.57-65.55-36.71-10.49-57.69,5.24-146.82,141.59-152.07,183.54,42,83.9,78.66,131.09,47.2,141.59,136.34,183.54,356.58,167.8,403.77,199.26,78.66,94.39,78.66,94.39" transform="translate(-120.39 -563.41)"/><path class="cls-3" d="M1596.92,1970.06s-31.46-62.93-78.66-94.39-314.63-157.31-403.77-199.26-99.63-136.34-136.34-183.54-83.9-89.14-78.66-131.09,131.1-167.8,152.07-183.54,47.2-15.73,57.69-5.24,44.57,65.55,44.57,65.55" transform="translate(-120.39 -563.41)"/><path class="cls-3" d="M1185.28,1091.72s-18.35-65.55-13.11-118,86.52-118,115.37-125.86,133.71,7.87,152.07,0,36.7-57.68,68.17-68.17,78.65-10.48,104.87,0,78.66,62.93,94.39,62.93,104.88-5.24,131.1,10.49,57.68,62.92,73.41,68.17,104.87,10.49,157.31,152.07,70.79,228.1,73.42,251.7,21,136.34,26.22,146.83,57.68,199.26,78.65,230.73" transform="translate(-120.39 -563.41)"/><path class="cls-3" d="M1038.45,1280.5s68.17,5.24,104.88,42,42,36.71,42,47.19-36.71,104.88-36.71,104.88" transform="translate(-120.39 -563.41)"/><path class="cls-4" d="M1146,1325.07s0-167.8,15.73-199.26,47.2-110.12,162.56-131.1,513.9-15.73,592.55,21,115.37,83.9,115.37,125.85-42,78.65-62.93,83.9-498.16-15.73-587.31-5.25-120.6,36.71-141.58,62.93-15.73,52.44-21,62.93-15.74,26.22-26.22,26.22S1146,1325.07,1146,1325.07Z" transform="translate(-120.39 -563.41)"/><line class="cls-5" x1="947.04" y1="44.57" x2="1983.47" y2="44.57"/><polygon class="cls-4" points="1974.85 89.14 2052.04 44.58 1974.85 0 1974.85 89.14"/><path class="cls-6" d="M1026.66,608" transform="translate(-120.39 -563.41)"/><circle class="cls-4" cx="973.26" cy="44.57" r="36.71"/><path class="cls-6" d="M1026.66,608" transform="translate(-120.39 -563.41)"/></svg>