<svg id="Layer_1" data-name="Layer 1" xmlns="http://www.w3.org/2000/svg" viewBox="0 0 1924.45 1925.01"><defs><style>.cls-1{opacity:0.15;}.cls-2{fill:#fff;}.cls-3,.cls-5,.cls-6{fill:none;stroke-miterlimit:10;}.cls-3,.cls-5{stroke:#666;}.cls-3{stroke-width:17.84px;}.cls-4{fill:#666;}.cls-5{stroke-width:35.68px;}.cls-6{stroke:#4d4d4d;stroke-width:11.89px;}.cls-7{opacity:0.36;}.cls-8{opacity:0.75;}</style></defs><title>swipe-up</title><g class="cls-1"><path class="cls-2" d="M1777.11,1841.85c-23.79-35.68-83.26-249.79-89.21-261.68s-26.76-139.77-29.74-166.53-23.79-124.9-83.26-285.48-160.58-166.52-178.42-172.47-53.53-59.48-83.27-77.32-130.84-11.89-148.68-11.89-77.32-59.48-107.06-71.37-83.26-11.9-118.94,0S882,863.5,861.21,872.42s-139.77-8.92-172.48,0-124.89,83.27-130.84,142.74S572.76,1149,572.76,1149l-35.69,166.53s-38.65-62.45-50.55-74.35-41.63-11.89-65.42,5.95-166.53,160.58-172.48,208.16,47.58,95.16,89.22,148.69,53.52,160.58,154.63,208.16,404.42,190.31,457.95,226,89.21,107.05,89.21,107.05" transform="translate(-239.25 -224.16)"/><path class="cls-3" d="M1039.63,2145.17s-35.68-71.37-89.21-107.05-356.84-178.42-457.95-226-113-154.64-154.63-208.16-95.16-101.11-89.22-148.69S397.31,1265,421.1,1247.11s53.53-17.84,65.42-5.95,50.55,74.35,50.55,74.35" transform="translate(-239.25 -224.16)"/><path class="cls-3" d="M572.76,1149s-20.82-74.34-14.87-133.82S656,881.35,688.73,872.42s151.66,8.93,172.48,0,41.63-65.42,77.32-77.31,89.21-11.9,118.94,0,89.22,71.37,107.06,71.37,119-6,148.68,11.89,65.42,71.37,83.27,77.32,119,11.89,178.42,172.47" transform="translate(-239.25 -224.16)"/><path class="cls-3" d="M406.23,1363.09s77.32,5.94,118.95,47.58,47.58,41.63,47.58,53.52-41.63,119-41.63,119" transform="translate(-239.25 -224.16)"/><path class="cls-4" d="M795.79,1294.69c-101.11,11.9-136.79,41.63-160.58,71.37s-17.84,59.47-23.79,71.37-17.84,29.74-29.74,29.74-53.53-53.53-53.53-53.53,0-190.32,17.85-226,53.52-124.9,184.37-148.69,582.84-17.84,672.05,23.79" transform="translate(-239.25 -224.16)"/><line class="cls-5" x1="1873.89" y1="1869.71" x2="1873.89" y2="694.21"/><path class="cls-6" d="M2113.14,806.25" transform="translate(-239.25 -224.16)"/><circle class="cls-4" cx="1873.89" cy="1839.97" r="41.63"/><path class="cls-6" d="M2113.14,806.25" transform="translate(-239.25 -224.16)"/></g><g class="cls-7"><path class="cls-2" d="M1574.9,943.79c-59.47-160.58-160.58-166.52-178.42-172.47S1343,711.84,1313.21,694s-130.84-11.89-148.68-11.89-77.32-59.48-107.06-71.37-83.26-11.9-118.94,0-56.5,68.39-77.32,77.31-139.77-8.92-172.48,0S563.84,771.32,557.89,830.79s14.87,133.82,14.87,133.82l-35.69,166.53s-38.65-62.45-50.55-74.35-41.63-11.89-65.42,6S254.57,1223.32,248.62,1270.9s47.58,95.16,89.22,148.69,53.52,160.58,154.63,208.16,404.42,190.31,457.95,226,89.21,107,89.21,107" transform="translate(-239.25 -224.16)"/><path class="cls-3" d="M1039.63,1960.8s-35.68-71.37-89.21-107-356.84-178.42-457.95-226-113-154.64-154.63-208.16-95.16-101.11-89.22-148.69,148.69-190.32,172.48-208.16,53.53-17.84,65.42-6,50.55,74.35,50.55,74.35" transform="translate(-239.25 -224.16)"/><path class="cls-3" d="M572.76,964.61s-20.82-74.34-14.87-133.82S656,697,688.73,688.05s151.66,8.93,172.48,0,41.63-65.42,77.32-77.31,89.21-11.9,118.94,0,89.22,71.37,107.06,71.37,119-6,148.68,11.89,65.42,71.37,83.27,77.32,119,11.89,178.42,172.47" transform="translate(-239.25 -224.16)"/><path class="cls-3" d="M406.23,1178.72s77.32,5.94,118.95,47.58,47.58,41.63,47.58,53.52-41.63,119-41.63,119" transform="translate(-239.25 -224.16)"/><path class="cls-4" d="M528.15,1229.27s0-190.32,17.85-226,53.52-124.9,184.37-148.69,582.84-17.84,672.05,23.79,130.85,95.16,130.85,142.74-47.58,89.21-71.37,95.16-565-17.84-666.11-6S659,1152,635.21,1181.69s-17.84,59.47-23.79,71.37-17.84,29.74-29.74,29.74S528.15,1229.27,528.15,1229.27Z" transform="translate(-239.25 -224.16)"/><line class="cls-5" x1="1873.89" y1="1685.34" x2="1873.89" y2="509.84"/><path class="cls-6" d="M2113.14,621.88" transform="translate(-239.25 -224.16)"/><circle class="cls-4" cx="1873.89" cy="1655.6" r="41.63"/><path class="cls-6" d="M2113.14,621.88" transform="translate(-239.25 -224.16)"/></g><g class="cls-8"><path class="cls-2" d="M1658.16,1044.9c-3-26.76-23.79-124.9-83.26-285.48S1414.32,592.9,1396.48,587s-53.53-59.48-83.27-77.32-130.84-11.89-148.68-11.89-77.32-59.48-107.06-71.37-83.26-11.9-118.94,0-56.5,68.39-77.32,77.31-139.77-8.92-172.48,0S563.84,587,557.89,646.42s14.87,133.82,14.87,133.82L537.07,946.77s-38.65-62.45-50.55-74.35-41.63-11.89-65.42,6S254.57,1039,248.62,1086.53s47.58,95.16,89.22,148.69,53.52,160.58,154.63,208.16,404.42,190.31,457.95,226,89.21,107,89.21,107" transform="translate(-239.25 -224.16)"/><path class="cls-3" d="M1039.63,1776.43s-35.68-71.37-89.21-107-356.84-178.42-457.95-226-113-154.64-154.63-208.16-95.16-101.11-89.22-148.69S397.31,896.21,421.1,878.37s53.53-17.84,65.42-6,50.55,74.35,50.55,74.35" transform="translate(-239.25 -224.16)"/><path class="cls-3" d="M572.76,780.24s-20.82-74.34-14.87-133.82S656,512.61,688.73,503.68s151.66,8.93,172.48,0,41.63-65.42,77.32-77.31,89.21-11.9,118.94,0,89.22,71.37,107.06,71.37,119-5.95,148.68,11.89S1378.63,581,1396.48,587s119,11.89,178.42,172.47,80.29,258.72,83.26,285.48,23.79,154.63,29.74,166.53" transform="translate(-239.25 -224.16)"/><path class="cls-3" d="M406.23,994.35s77.32,5.94,118.95,47.58,47.58,41.63,47.58,53.52-41.63,119-41.63,119" transform="translate(-239.25 -224.16)"/><path class="cls-4" d="M528.15,1044.9s0-190.32,17.85-226S599.52,694,730.37,670.21s582.84-17.84,672.05,23.79,130.85,95.16,130.85,142.74S1485.69,926,1461.9,931.9s-565-17.84-666.11-5.95S659,967.58,635.21,997.32s-17.84,59.47-23.79,71.37-17.84,29.74-29.74,29.74S528.15,1044.9,528.15,1044.9Z" transform="translate(-239.25 -224.16)"/><line class="cls-5" x1="1873.89" y1="1500.97" x2="1873.89" y2="325.47"/><path class="cls-6" d="M2113.14,437.51" transform="translate(-239.25 -224.16)"/><circle class="cls-4" cx="1873.89" cy="1471.23" r="41.63"/><path class="cls-6" d="M2113.14,437.51" transform="translate(-239.25 -224.16)"/></g><path class="cls-2" d="M1777.11,1288.74c-23.79-35.68-83.26-249.79-89.21-261.68s-26.76-139.77-29.74-166.53-23.79-124.9-83.26-285.48-160.58-166.52-178.42-172.47-53.53-59.48-83.27-77.32-130.84-11.89-148.68-11.89-77.32-59.48-107.06-71.37-83.26-11.9-118.94,0-56.5,68.39-77.32,77.31-139.77-8.92-172.48,0S563.84,402.58,557.89,462.05s14.87,133.82,14.87,133.82L537.07,762.4S498.42,700,486.52,688.05s-41.63-11.89-65.42,6S254.57,854.58,248.62,902.16s47.58,95.16,89.22,148.69S391.36,1211.43,492.47,1259s404.42,190.31,457.95,226,89.21,107,89.21,107" transform="translate(-239.25 -224.16)"/><path class="cls-3" d="M1039.63,1592.06s-35.68-71.37-89.21-107-356.84-178.42-457.95-226-113-154.64-154.63-208.16-95.16-101.11-89.22-148.69S397.31,711.84,421.1,694s53.53-17.84,65.42-6,50.55,74.35,50.55,74.35" transform="translate(-239.25 -224.16)"/><path class="cls-3" d="M572.76,595.87s-20.82-74.34-14.87-133.82S656,328.24,688.73,319.31s151.66,8.93,172.48,0,41.63-65.42,77.32-77.31,89.21-11.9,118.94,0,89.22,71.37,107.06,71.37,119-5.95,148.68,11.89,65.42,71.37,83.27,77.32,119,11.89,178.42,172.47,80.29,258.72,83.26,285.48,23.79,154.63,29.74,166.53,65.42,226,89.21,261.68" transform="translate(-239.25 -224.16)"/><path class="cls-3" d="M406.23,810s77.32,5.94,118.95,47.58,47.58,41.63,47.58,53.52S531.13,1030,531.13,1030" transform="translate(-239.25 -224.16)"/><path class="cls-4" d="M528.15,860.53s0-190.32,17.85-226,53.52-124.9,184.37-148.69,582.84-17.84,672.05,23.79,130.85,95.16,130.85,142.74-47.58,89.21-71.37,95.16-565-17.84-666.11-5.95S659,783.21,635.21,813s-17.84,59.47-23.79,71.37-17.84,29.74-29.74,29.74S528.15,860.53,528.15,860.53Z" transform="translate(-239.25 -224.16)"/><line class="cls-5" x1="1873.89" y1="1316.6" x2="1873.89" y2="141.1"/><polygon class="cls-4" points="1924.45 150.88 1873.9 63.33 1823.34 150.88 1924.45 150.88"/><circle class="cls-4" cx="1873.89" cy="1286.86" r="41.63"/></svg>