<svg id="Layer_1" data-name="Layer 1" xmlns="http://www.w3.org/2000/svg" viewBox="0 0 2185.72 1488.73"><defs><style>.cls-1{opacity:0.15;}.cls-2,.cls-6{fill:#fff;}.cls-3,.cls-5{fill:none;}.cls-3,.cls-5,.cls-6{stroke:#666;stroke-miterlimit:10;}.cls-3,.cls-6{stroke-width:16.61px;}.cls-4{fill:#666;}.cls-5{stroke-width:33.22px;}.cls-7{opacity:0.36;}.cls-8{opacity:0.75;}</style></defs><title>swipe_left</title><g class="cls-1"><path class="cls-2" d="M2283.15,1663.72c-22.15-33.21-77.51-232.51-83-243.58s-24.92-130.09-27.68-155-22.15-116.25-77.51-265.72-149.47-155-166.07-160.54-49.83-55.36-77.51-72-121.79-11.07-138.4-11.07-72-55.36-99.64-66.43-77.51-11.07-110.72,0-52.59,63.66-72,72-130.09-8.3-160.54,0-116.25,77.51-121.79,132.87,13.84,124.56,13.84,124.56l-33.22,155s-36-58.13-47.05-69.2-38.75-11.07-60.9,5.54S866,1259.6,860.41,1303.89s44.29,88.57,83,138.39,49.82,149.47,143.93,193.76,376.45,177.15,426.27,210.37,83,99.64,83,99.64" transform="translate(-104.33 -461.04)"/><path class="cls-3" d="M1087.38,1636c-94.11-44.29-105.18-143.93-143.93-193.76s-88.57-94.11-83-138.39,138.4-177.15,160.54-193.76,49.83-16.61,60.9-5.54,47.05,69.2,47.05,69.2" transform="translate(-104.33 -461.04)"/><path class="cls-3" d="M1162.12,1018.79s-19.38-69.2-13.84-124.56,91.34-124.56,121.79-132.87,141.17,8.31,160.54,0,38.75-60.89,72-72,83-11.07,110.72,0,83,66.43,99.64,66.43,110.72-5.54,138.4,11.07,60.9,66.43,77.51,72,110.71,11.07,166.07,160.54,74.74,240.81,77.51,265.72,22.14,143.94,27.68,155,60.89,210.37,83,243.58" transform="translate(-104.33 -461.04)"/><path class="cls-3" d="M1007.11,1218.08s72,5.54,110.72,44.29,44.29,38.75,44.29,49.82-38.75,110.72-38.75,110.72" transform="translate(-104.33 -461.04)"/><path class="cls-4" d="M1120.6,1265.13s0-177.15,16.61-210.36,49.82-116.26,171.61-138.4,542.52-16.61,625.56,22.14,121.79,88.58,121.79,132.87-44.29,83-66.43,88.57-525.91-16.61-620-5.53-127.33,38.75-149.47,66.43-16.61,55.36-22.15,66.43-16.6,27.68-27.68,27.68S1120.6,1265.13,1120.6,1265.13Z" transform="translate(-104.33 -461.04)"/><line class="cls-5" x1="2022.42" y1="47.06" x2="1780.23" y2="47.06"/><circle class="cls-4" cx="1994.74" cy="47.06" r="38.75"/><path class="cls-6" d="M1162.12,1018.79" transform="translate(-104.33 -461.04)"/></g><g class="cls-7"><path class="cls-2" d="M2034,1663.72c-22.15-33.21-77.5-232.51-83-243.58s-24.91-130.09-27.68-155-22.14-116.25-77.5-265.72-149.47-155-166.08-160.54-49.82-55.36-77.5-72-121.79-11.07-138.4-11.07-72-55.36-99.65-66.43-77.5-11.07-110.72,0-52.59,63.66-72,72-130.1-8.3-160.55,0S904.7,838.87,899.16,894.23,913,1018.79,913,1018.79l-33.21,155s-36-58.13-47.06-69.2-38.75-11.07-60.89,5.54-155,149.47-160.55,193.76,44.29,88.57,83,138.39S744.16,1591.75,838.27,1636s376.44,177.15,426.26,210.37,83,99.64,83,99.64" transform="translate(-104.33 -461.04)"/><path class="cls-3" d="M838.27,1636c-94.11-44.29-105.18-143.93-143.94-193.76s-88.57-94.11-83-138.39,138.4-177.15,160.55-193.76,49.82-16.61,60.89-5.54,47.06,69.2,47.06,69.2" transform="translate(-104.33 -461.04)"/><path class="cls-3" d="M913,1018.79s-19.37-69.2-13.84-124.56S990.51,769.67,1021,761.36s141.17,8.31,160.55,0,38.75-60.89,72-72,83-11.07,110.72,0,83,66.43,99.65,66.43,110.72-5.54,138.4,11.07,60.89,66.43,77.5,72,110.72,11.07,166.08,160.54,74.73,240.81,77.5,265.72,22.14,143.94,27.68,155,60.89,210.37,83,243.58" transform="translate(-104.33 -461.04)"/><path class="cls-3" d="M758,1218.08s72,5.54,110.72,44.29S913,1301.12,913,1312.19s-38.75,110.72-38.75,110.72" transform="translate(-104.33 -461.04)"/><path class="cls-4" d="M871.48,1265.13s0-177.15,16.61-210.36,49.82-116.26,171.61-138.4,542.53-16.61,625.56,22.14,121.8,88.58,121.8,132.87-44.29,83-66.44,88.57-525.91-16.61-620-5.53-127.33,38.75-149.47,66.43-16.61,55.36-22.14,66.43S932.38,1315,921.31,1315,871.48,1265.13,871.48,1265.13Z" transform="translate(-104.33 -461.04)"/><line class="cls-5" x1="1773.31" y1="47.06" x2="1531.11" y2="45.67"/><circle class="cls-4" cx="1745.63" cy="47.06" r="38.75"/><path class="cls-6" d="M913,1018.79" transform="translate(-104.33 -461.04)"/></g><g class="cls-8"><path class="cls-2" d="M1784.91,1663.72c-22.14-33.21-77.5-232.51-83-243.58s-24.91-130.09-27.68-155-22.14-116.25-77.5-265.72-149.47-155-166.08-160.54-49.82-55.36-77.5-72-121.79-11.07-138.4-11.07-72-55.36-99.65-66.43-77.5-11.07-110.71,0-52.6,63.66-72,72-130.1-8.3-160.54,0S655.58,838.87,650.05,894.23s13.84,124.56,13.84,124.56l-33.22,155s-36-58.13-47.06-69.2-38.75-11.07-60.89,5.54-155,149.47-160.54,193.76,44.29,88.57,83,138.39S495,1591.75,589.15,1636s376.44,177.15,426.27,210.37,83,99.64,83,99.64" transform="translate(-104.33 -461.04)"/><path class="cls-3" d="M589.15,1636C495,1591.75,484,1492.11,445.22,1442.28s-88.58-94.11-83-138.39,138.4-177.15,160.54-193.76,49.82-16.61,60.89-5.54,47.06,69.2,47.06,69.2" transform="translate(-104.33 -461.04)"/><path class="cls-3" d="M663.89,1018.79s-19.38-69.2-13.84-124.56,91.34-124.56,121.79-132.87,141.16,8.31,160.54,0,38.75-60.89,72-72,83-11.07,110.71,0,83,66.43,99.65,66.43,110.72-5.54,138.4,11.07,60.89,66.43,77.5,72,110.72,11.07,166.08,160.54,74.74,240.81,77.5,265.72,22.15,143.94,27.68,155,60.9,210.37,83,243.58" transform="translate(-104.33 -461.04)"/><path class="cls-3" d="M508.88,1218.08s72,5.54,110.72,44.29,44.29,38.75,44.29,49.82-38.76,110.72-38.76,110.72" transform="translate(-104.33 -461.04)"/><path class="cls-4" d="M622.37,1265.13s0-177.15,16.6-210.36,49.83-116.26,171.62-138.4,542.52-16.61,625.56,22.14,121.79,88.58,121.79,132.87-44.29,83-66.43,88.57-525.92-16.61-620-5.53S744.16,1193.17,722,1220.85s-16.6,55.36-22.14,66.43S683.26,1315,672.19,1315,622.37,1265.13,622.37,1265.13Z" transform="translate(-104.33 -461.04)"/><line class="cls-5" x1="1524.19" y1="47.06" x2="430.02" y2="47.06"/><circle class="cls-4" cx="1496.51" cy="47.06" r="38.75"/><path class="cls-6" d="M663.89,1018.79" transform="translate(-104.33 -461.04)"/></g><path class="cls-2" d="M1535.79,1663.72c-22.14-33.21-77.5-232.51-83-243.58s-24.92-130.09-27.68-155-22.15-116.25-77.51-265.72-149.47-155-166.07-160.54-49.83-55.36-77.51-72-121.79-11.07-138.4-11.07-72-55.36-99.64-66.43-77.51-11.07-110.72,0-52.59,63.66-72,72-130.09-8.3-160.54,0S406.47,838.87,400.93,894.23s13.84,124.56,13.84,124.56l-33.22,155s-36-58.13-47.05-69.2-38.75-11.07-60.9,5.54-155,149.47-160.54,193.76,44.29,88.57,83,138.39S245.92,1591.75,340,1636s376.45,177.15,426.27,210.37,83,99.64,83,99.64" transform="translate(-104.33 -461.04)"/><path class="cls-3" d="M849.34,1946.05s-33.22-66.43-83-99.64S434.14,1680.33,340,1636,234.85,1492.11,196.1,1442.28s-88.57-94.11-83-138.39,138.4-177.15,160.54-193.76,49.83-16.61,60.9-5.54,47.05,69.2,47.05,69.2" transform="translate(-104.33 -461.04)"/><path class="cls-3" d="M414.77,1018.79s-19.38-69.2-13.84-124.56,91.34-124.56,121.79-132.87,141.17,8.31,160.54,0,38.75-60.89,72-72,83-11.07,110.72,0,83,66.43,99.64,66.43,110.72-5.54,138.4,11.07,60.9,66.43,77.51,72,110.71,11.07,166.07,160.54,74.74,240.81,77.51,265.72,22.14,143.94,27.68,155,60.89,210.37,83,243.58" transform="translate(-104.33 -461.04)"/><path class="cls-3" d="M259.76,1218.08s72,5.54,110.72,44.29,44.29,38.75,44.29,49.82S376,1422.91,376,1422.91" transform="translate(-104.33 -461.04)"/><path class="cls-4" d="M373.25,1265.13s0-177.15,16.61-210.36,49.82-116.26,171.61-138.4S1104,899.76,1187,938.51s121.79,88.58,121.79,132.87-44.29,83-66.43,88.57-525.91-16.61-620-5.53S495,1193.17,472.9,1220.85s-16.61,55.36-22.15,66.43S434.14,1315,423.07,1315,373.25,1265.13,373.25,1265.13Z" transform="translate(-104.33 -461.04)"/><line class="cls-5" x1="1275.07" y1="47.06" x2="180.9" y2="47.06"/><polygon class="cls-4" points="190 0 108.51 47.05 190 94.11 190 0"/><circle class="cls-4" cx="1247.39" cy="47.06" r="38.75"/><path class="cls-6" d="M414.77,1018.79" transform="translate(-104.33 -461.04)"/></svg>