<svg id="Layer_1" data-name="Layer 1" xmlns="http://www.w3.org/2000/svg" viewBox="0 0 2220.38 2237.13"><defs><style>.cls-1{opacity:0.15;}.cls-2{fill:#fff;}.cls-3{fill:#666;}.cls-4,.cls-5,.cls-6,.cls-7{fill:none;stroke-miterlimit:10;}.cls-4{stroke:#4d4d4d;}.cls-4,.cls-5{stroke-width:42.16px;}.cls-5,.cls-6,.cls-7{stroke:#666;}.cls-6{stroke-width:21.08px;}.cls-7{stroke-width:20.86px;}.cls-8{opacity:0.36;}.cls-9{opacity:0.75;}</style></defs><title>twist</title><g class="cls-1"><path class="cls-2" d="M827.23,663.18c19.48-20.66,101.24-124.76,121.23-160.86s33.33-60.17,79-113.53,113.75-31.34,138.34-17.73,45.32,48.7,69.39,77.75,201.28,158.67,222.53,178.3,45.84,33.26,34.8,82.18-84,79.25-84,79.25l12.78,13.18c82,69.51,99.09,111.12,101.17,136.37s1.42,40.95,1.42,40.95,41-1.42,117.45,49,55.36,66.81,62.88,75,56,15,94.94,60.62,87.47,88.61,95.7,117.27,2.83,81.89-10.79,106.48l-160,288.89c-6.81,12.29-7.47,28-30.64,55.31s-58.63,47.85-71.59,56.74-78.39,69-107,77.26-60.05,6.9-90.78-10.13-102.41-32.63-131.07-24.4-94.85,11.72-110.54,11.06-120.19-58.54-135.23-74.9-15-16.36-39.62-30-90.78-10.12-127.66-30.55-103.83-73.58-108.65-108.38,2-47.09-13-63.45S631.16,1561,544.36,1456.64s-43.21-168.51-35.74-196.51,32-86.71,37.36-140S588.82,999.33,599,980.89s32.72-30.07,45.68-39S815.79,763.59,832.81,732.85C832.81,732.85,807.75,683.84,827.23,663.18Z" transform="translate(-92.19 -67.09)"/><circle class="cls-3" cx="1617.16" cy="199.9" r="49.19"/><path class="cls-4" d="M496.7,385.3" transform="translate(-92.19 -67.09)"/><path class="cls-5" d="M1710.21,267.47c519.38,287.69,707.21,942,419.52,1461.33S1187.78,2436,668.4,2148.32-38.81,1206.37,248.88,687" transform="translate(-92.19 -67.09)"/><path class="cls-6" d="M644.72,941.93C657.67,933,815.79,763.59,832.81,732.85s126.16-82.73,189-80.08,195.27,68,209.65,100.06,16.45,57.3,16.45,57.3,91.35-77.91,173.34-8.41,99.09,111.12,101.17,136.37,1.42,40.95,1.42,40.95,41-1.42,117.45,49,55.36,66.81,62.88,75,56,14.94,94.94,60.62,87.47,88.61,95.7,117.27,2.83,81.89-10.79,106.48l-160,288.89c-6.81,12.29-7.47,28-30.64,55.31s-58.63,47.85-71.59,56.74-78.39,69-107,77.25-60.05,6.91-90.78-10.12-102.41-32.63-131.07-24.4-94.85,11.72-110.54,11.06-120.19-58.54-135.23-74.9-15-16.36-39.62-30-90.78-10.13-127.66-30.55-103.83-73.58-108.65-108.38,2-47.09-13-63.45S631.16,1561,544.36,1456.64s-43.21-168.51-35.74-196.51,32-86.71,37.36-140S588.82,999.33,599,980.89,631.76,950.82,644.72,941.93Z" transform="translate(-92.19 -67.09)"/><path class="cls-7" d="M1408.42,788.54s73-30.32,84-79.25-13.55-62.54-34.8-82.18-198.47-149.24-222.53-178.3-44.81-64.13-69.39-77.75-92.72-35.63-138.34,17.73-59,77.43-79,113.53S846.71,642.52,827.23,663.18s-21,67-21,67" transform="translate(-92.19 -67.09)"/><path class="cls-6" d="M1246.49,805.36s-134.2,198.77-193.5,262.31S944,1192,923.53,1228.9" transform="translate(-92.19 -67.09)"/><path class="cls-6" d="M1522.42,974.26s-245.22,370.21-258.84,394.8-66.11,75.84-66.11,75.84" transform="translate(-92.19 -67.09)"/><path class="cls-6" d="M1702.75,1098.25s16.45,57.3,9,85.29-156,267-166.83,301.19-109.7,140-109.7,140" transform="translate(-92.19 -67.09)"/><path class="cls-3" d="M425.62,1404.76c-36.61-75-25.62-190.55,32.64-343.52a480.74,480.74,0,0,1,30.17-64.07C534.05,913.11,599.1,849.37,649,800.5c15.05-14.73,29.27-28.66,41-41.23,64.17-68.76,139-28.53,139.72-28.12l-3.39,6.15,11.36,6.3-8.51,9.82c-28,32.34-168.53,194.16-181.93,203.35-2.49,1.71-5.34,3.53-8.38,5.47-12,7.67-27,17.24-34,29.9-30.93,55.84-48.35,101.35-51.79,135.25-4,39.46-18.06,81.5-28.33,112.19-3.93,11.74-7.32,21.88-9.33,29.42-1.13,4.25-2.87,8.87-4.87,14.22-12.24,32.62-32.71,87.22,38.53,172.82,59,70.88,129.8,70.33,172.12,70,20.36-.16,33.82-.26,41.25,7.82,12.66,13.78,13.09,26.21,13.64,41.94a243.88,243.88,0,0,0,2.09,27.2c3.91,28.25,64.77,79.26,103.31,100.6,18.58,10.29,47,14.19,72,17.61,23,3.15,42.84,5.87,55.61,12.94,25.6,14.18,26.39,14.78,42.28,32.07,14.6,15.9,114.33,70,127.91,71.5,12,.51,72.6-2.39,103-4l3.21-.17,2.55,1.53,3.62-6c1.24.74,30.63,18.46,46.51,35.75,7.24,7.88,13,25.52,4.58,40.7a35.64,35.64,0,0,1-2.24,3.46c-.4.9-.68,1.81-1.17,2.69a35,35,0,0,1-2.49,3.86c-31,41.57-149.34,12.56-351.68-86.23C545,1614.41,441.83,1438,425.62,1404.76Z" transform="translate(-92.19 -67.09)"/></g><g class="cls-8"><path class="cls-2" d="M1065.45,565.74c25.76-12,140.34-78.25,172.31-104.34s53.29-43.49,115.46-76.09,117.26,13.14,135,34.91,24,62,35.55,98,128,222.07,140.41,248.19,30.21,47.9,1.79,89.23S1558.53,898,1558.53,898l7,17c50.3,95,50.74,140,43.3,164.19s-13.89,38.54-13.89,38.54,38.54,13.9,90.85,89.11,26.59,82.59,30.54,93,46.43,34.66,65.64,91.54,48.3,114.76,45.3,144.42-27.78,77.09-49.56,94.86l-255.85,208.8c-10.89,8.89-17.34,23.22-49,40s-72.21,22.65-87.54,26.09-98.42,35-128.08,32-58.32-15.9-80.53-43.12-83-68.32-112.63-71.33-92.42-24.34-106.75-30.78-89.86-99-97.74-119.76-7.88-20.78-25.65-42.55-80.54-43.12-107.19-75.78-69.08-106.87-60.63-141,19.33-43,11.45-63.76-127.53-22.9-169.39-152,22.46-172.51,39.8-195.73S609.83,933,634.61,885.61s84.66-96.3,101-109.63,41.55-15.76,56.88-19.21,225.07-102,252.29-124.27C1044.77,632.5,1039.7,577.69,1065.45,565.74Z" transform="translate(-92.19 -67.09)"/><circle class="cls-3" cx="1939.43" cy="458.38" r="49.19"/><path class="cls-4" d="M861.76,185" transform="translate(-92.19 -67.09)"/><path class="cls-5" d="M2032.25,526.23c375.4,460,306.83,1137.22-153.17,1512.62S741.86,2345.68,366.46,1885.69,59.63,748.47,519.62,373.06" transform="translate(-92.19 -67.09)"/><path class="cls-6" d="M792.48,756.77c15.33-3.44,225.07-102,252.29-124.27s147.86-30,205.17-4.19S1406,764,1407.44,799.07s-6,59.32-6,59.32S1515.19,820,1565.5,915s50.74,140,43.3,164.19-13.89,38.54-13.89,38.54,38.54,13.9,90.85,89.11,26.6,82.59,30.54,93,46.43,34.66,65.64,91.54,48.3,114.76,45.3,144.42-27.78,77.09-49.56,94.86l-255.85,208.8c-10.89,8.89-17.34,23.22-49,40s-72.21,22.65-87.54,26.09-98.42,35-128.08,32-58.32-15.9-80.53-43.12-83-68.32-112.63-71.33-92.42-24.34-106.75-30.78-89.86-99-97.74-119.76-7.88-20.78-25.65-42.55-80.54-43.12-107.19-75.78-69.08-106.87-60.63-141,19.33-43,11.45-63.76-127.53-22.9-169.39-152,22.46-172.51,39.8-195.73S609.83,933,634.61,885.61s84.66-96.3,101-109.63S777.15,760.22,792.48,756.77Z" transform="translate(-92.19 -67.09)"/><path class="cls-7" d="M1558.53,898s79.06-1,107.47-42.36,10.65-63.1-1.79-89.23S1535.36,554.1,1523.8,518.18s-17.78-76.18-35.55-98-72.86-67.51-135-34.91-83.49,50-115.46,76.09-146.55,92.39-172.31,104.34-44.4,54.37-44.4,54.37" transform="translate(-92.19 -67.09)"/><path class="cls-6" d="M1401.93,853.44s-198.41,134.72-277.07,171.7-147.42,75-180.08,101.62" transform="translate(-92.19 -67.09)"/><path class="cls-6" d="M1595.41,1112.74s-365.17,252.67-387,270.44-89.54,45.87-89.54,45.87" transform="translate(-92.19 -67.09)"/><path class="cls-6" d="M1716.8,1294.83s-6,59.31-23.34,82.53-244,190-266.75,217.69-153.86,89.29-153.86,89.29" transform="translate(-92.19 -67.09)"/><path class="cls-3" d="M417.17,1105.14c-6.15-83.2,47-186.44,157.88-306.83A480.51,480.51,0,0,1,626.85,750c73.58-61.1,157.64-96.13,222.15-123,19.44-8.09,37.81-15.74,53.38-23,85.11-40,139.63,25.11,140.17,25.77l-5.44,4.45,8.21,10.07-11.55,6c-38,19.63-228.58,117.69-244.43,121.25-3,.66-6.27,1.29-9.81,2-14,2.65-31.49,6-42.71,15.12-49.46,40.36-82.54,76.15-98.31,106.35-18.37,35.15-47,69-68,93.64-8,9.44-14.92,17.6-19.59,23.85-2.64,3.53-6,7.17-9.81,11.39-23.47,25.75-62.76,68.84-28.41,174.78,28.45,87.71,94.41,113.5,133.82,128.92,19,7.41,31.5,12.31,35.39,22.58,6.65,17.49,2.43,29.19-2.91,44a246.51,246.51,0,0,0-8.15,26c-6.87,27.68,30.71,97.65,58.56,131.78,13.43,16.45,38.36,30.62,60.36,43.11,20.17,11.45,37.59,21.35,46.83,32.67,18.5,22.66,19,23.51,27.34,45.47,7.66,20.18,80.18,107.4,92.21,113.89,11,4.93,68.3,24.74,97.08,34.52l3,1,1.8,2.37,5.59-4.25c.88,1.15,21.58,28.52,29.91,50.47,3.8,10,2.58,28.52-10.87,39.49a34.08,34.08,0,0,1-3.36,2.38,28.9,28.9,0,0,1-2.08,2.06,35.32,35.32,0,0,1-3.75,2.66c-44.23,27.08-143.32-43.8-294.51-210.66C450.14,1344.12,419.89,1142,417.17,1105.14Z" transform="translate(-92.19 -67.09)"/></g><g class="cls-9"><path class="cls-2" d="M1287.29,543.76c28.27-2.65,158.42-26.82,197.28-40.72s64.76-23.16,134.26-33.1,106.11,51.6,115.58,78.06,1.87,66.5.75,104.21,46.33,252.07,49.32,280.85,12.46,55.25-28.14,84.7-115.45,4-115.45,4l.88,18.34c15.65,106.34,1,148.89-14.09,169.22s-26,31.68-26,31.68,31.68,26,55.82,114.35-2.55,86.74-2.31,97.84,32.16,48.2,31.25,108.23,7.15,124.3-5.6,151.25-52,63.36-78.42,72.82l-311,111.23c-13.24,4.74-24.1,16.08-59.55,21.3s-75.62-2.8-91.22-4.68-104.46,0-131.41-12.7-49.64-34.48-61.48-67.56-55.34-92.14-82.29-104.88-79-53.85-90.31-64.71-51.58-123.34-52.06-145.56-.49-22.21-9.95-48.67-61.48-67.56-75.68-107.26-29.36-123.82-10-153.13,32.6-34,32.11-56.27-112.52-64.22-108.81-199.87,78.86-155.07,103-171.16,81.27-44,120.48-80.41,112-62.44,131.84-69.54,44.43-1,60,.91,246.24-20.91,279.32-32.75C1245.47,599.76,1259,546.41,1287.29,543.76Z" transform="translate(-92.19 -67.09)"/><circle class="cls-3" cx="2119.12" cy="761.8" r="49.19"/><path class="cls-4" d="M1222.65,116.8" transform="translate(-92.19 -67.09)"/><path class="cls-5" d="M2211.64,829.82c200,559-91.12,1174.35-650.16,1374.32S387.12,2113,187.15,1554,278.27,379.62,837.32,179.65" transform="translate(-92.19 -67.09)"/><path class="cls-6" d="M966.15,632.51c15.6,1.89,246.24-20.91,279.32-32.75s149.37,21.2,194.77,64.66S1542,844.45,1531.56,878s-25.49,53.9-25.49,53.9,120,1.83,135.7,108.17,1,148.89-14.09,169.22-26,31.68-26,31.68,31.68,26,55.83,114.35-2.56,86.74-2.32,97.84,32.16,48.2,31.25,108.23,7.15,124.3-5.6,151.25-52,63.36-78.42,72.82l-311,111.23c-13.24,4.74-24.1,16.08-59.55,21.3s-75.62-2.8-91.22-4.68-104.46,0-131.41-12.7-49.64-34.48-61.48-67.56-55.34-92.14-82.29-104.89-79-53.84-90.31-64.7-51.58-123.34-52.06-145.56-.49-22.21-9.95-48.67-61.48-67.56-75.68-107.26-29.36-123.82-10-153.13,32.6-34,32.11-56.27-112.52-64.22-108.81-199.87,78.86-155.07,103-171.16,81.27-44,120.48-80.41,112-62.44,131.84-69.54S950.55,630.63,966.15,632.51Z" transform="translate(-92.19 -67.09)"/><path class="cls-7" d="M1640.89,1021.74s74.85,25.46,115.45-4,31.13-55.92,28.14-84.7S1734,689.92,1735.16,652.21s8.71-77.74-.75-104.21-46.09-88-115.58-78.06-95.4,19.2-134.26,33.1-169,38.07-197.28,40.72-60,36.4-60,36.4" transform="translate(-92.19 -67.09)"/><path class="cls-6" d="M1508.19,927.42s-232,60.61-318.53,69.16-164,21.35-203.7,35.55" transform="translate(-92.19 -67.09)"/><path class="cls-6" d="M1603.82,1236.49s-428.64,116-455.1,125.47-99.73,13.29-99.73,13.29" transform="translate(-92.19 -67.09)"/><path class="cls-6" d="M1657.33,1448.68s-25.49,53.9-49.59,70-293.47,97.51-324.18,116-174.87,32.7-174.87,32.7" transform="translate(-92.19 -67.09)"/><path class="cls-3" d="M496,835.32c22-80.47,106.61-160,251.38-236.37a481.61,481.61,0,0,1,65-28.18c89.77-33,180.71-37.88,250.47-41.61,21-1.12,40.9-2.18,58-3.87,93.59-9.25,123.19,70.36,123.48,71.16l-6.61,2.38,4.37,12.23-12.88,1.75c-42.41,5.78-254.78,34.48-270.9,32.53-3-.36-6.34-.87-9.91-1.43-14.11-2.18-31.67-4.9-45.31,0-60.1,21.5-103.24,44.16-128.21,67.34-29.07,27-67.39,49.27-95.37,65.53-10.7,6.22-20,11.59-26.44,15.92-3.66,2.45-8,4.77-13,7.46-30.73,16.42-82.17,43.89-85.21,155.22-2.53,92.17,51,138.54,83,166.24,15.39,13.33,25.56,22.14,25.8,33.12.41,18.71-7.47,28.32-17.45,40.5a246,246,0,0,0-16.4,21.8c-15.72,23.79-3.71,102.3,11.13,143.78,7.15,20,25.91,41.68,42.47,60.81,15.18,17.54,28.29,32.69,33.21,46.44,9.85,27.55,10.05,28.52,10.56,52,.47,21.58,39.65,128,48.82,138.17,8.69,8.32,56.09,46.16,79.94,65l2.53,2,.9,2.83,6.69-2.13c.45,1.38,10.81,34.09,11.32,57.56.23,10.7-7.11,27.74-23.45,33.59a39,39,0,0,1-4,1.12c-.89.41-1.7.9-2.65,1.24a34.9,34.9,0,0,1-4.42,1.25c-50.74,10.74-120.42-89.2-207.11-297C447.11,1071.57,486.2,871,496,835.32Z" transform="translate(-92.19 -67.09)"/></g><path class="cls-2" d="M1489.38,618.67c27.52,7,158.2,28.11,199.47,28.11s68.78,0,137.56,14.05,82.53,84.32,82.53,112.42-20.63,63.24-34.39,98.37-41.26,253-48.14,281.07-6.88,56.21-55,70.26-110.05-35.13-110.05-35.13l-5.34,17.56c-21.08,105.4-49.19,140.53-70.26,154.59s-35.14,21.08-35.14,21.08,21.08,35.13,14.06,126.47-31.62,80.81-35.14,91.35,14.06,56.21-7,112.42-35.14,119.45-56.22,140.53S1396,1894,1367.9,1894H1037.66c-14.06,0-28.11,7-63.24,0s-70.27-28.1-84.32-35.13-98.37-35.13-119.45-56.21-35.13-49.19-35.13-84.32-21.08-105.4-42.16-126.48-56.21-77.29-63.24-91.34-7-133.51,0-154.59,7-21.08,7-49.18S602,1212.41,602,1170.25s14.06-126.48,42.16-147.56,42.16-21.07,49.19-42.15S609,882.16,658.23,755.69,784.7,636.24,812.81,629.21s91.34-14.05,140.53-35.13S1079.82,573,1100.9,573s42.16,14,56.21,21.08,238.9,63.24,274,63.24C1431.14,657.32,1461.87,611.64,1489.38,618.67Z" transform="translate(-92.19 -67.09)"/><polygon class="cls-3" points="1046.95 119.45 1150.38 59.73 1046.95 0 1046.95 119.45"/><circle class="cls-3" cx="2171.19" cy="1131.27" r="49.19"/><path class="cls-4" d="M1572.31,194.89" transform="translate(-92.19 -67.09)"/><path class="cls-5" d="M2263.38,1199.34c0,593.74-481.32,1075.05-1075.05,1075.05s-1075.06-481.31-1075.06-1075S594.59,124.28,1188.33,124.28" transform="translate(-92.19 -67.09)"/><path class="cls-6" d="M1157.11,594.08c14.05,7,238.9,63.24,274,63.24s133.51,70.26,161.61,126.47,35.13,203.77,14.06,231.88-42.16,42.16-42.16,42.16S1677.07,1100,1656,1205.38s-49.18,140.53-70.26,154.59-35.14,21.08-35.14,21.08,21.08,35.13,14.06,126.47-31.62,80.81-35.14,91.35,14.06,56.21-7,112.42-35.14,119.45-56.22,140.53S1396,1894,1367.9,1894H1037.66c-14.05,0-28.11,7-63.24,0s-70.27-28.1-84.32-35.13-98.37-35.13-119.45-56.21-35.13-49.19-35.13-84.32-21.08-105.4-42.16-126.48-56.21-77.29-63.24-91.34-7-133.51,0-154.59,7-21.08,7-49.18S602,1212.41,602,1170.25s14.06-126.48,42.16-147.56,42.16-21.07,49.19-42.15S609,882.16,658.23,755.69,784.7,636.24,812.81,629.21s91.34-14.05,140.53-35.13S1079.82,573,1100.9,573,1143.06,587.05,1157.11,594.08Z" transform="translate(-92.19 -67.09)"/><path class="cls-7" d="M1661.33,1187.82s61.91,49.18,110.05,35.13,48.15-42.16,55-70.26,34.39-245.93,48.14-281.07,34.39-70.26,34.39-98.37-13.75-98.37-82.53-112.42-96.29-14.05-137.56-14.05-171.95-21.08-199.47-28.11-68.78,14.05-68.78,14.05" transform="translate(-92.19 -67.09)"/><path class="cls-6" d="M1568.16,1054.31s-238.9-21.08-323.22-42.16S1083.33,977,1041.17,977" transform="translate(-92.19 -67.09)"/><path class="cls-6" d="M1554.11,1377.53s-442.67-35.13-470.78-35.13S985,1321.32,985,1321.32" transform="translate(-92.19 -67.09)"/><path class="cls-6" d="M1533,1595.35s-42.16,42.16-70.27,49.19-309.16-7-344.3,0-175.66-28.11-175.66-28.11" transform="translate(-92.19 -67.09)"/><path class="cls-3" d="M646.08,626.68c47.84-68.35,154.27-114.74,316.31-137.89a480.17,480.17,0,0,1,70.67-4.66c95.64-.82,182.91,25.19,249.85,45.19,20.18,6,39.25,11.72,55.93,15.89,91.25,22.81,92.3,107.74,92.3,108.59l-7,0v13l-12.72-2.68c-41.88-8.85-251.51-53.35-266-60.61-2.71-1.36-5.68-3-8.85-4.69-12.55-6.81-28.17-15.28-42.65-15.28-63.84,0-112.09,6.81-143.41,20.23-36.45,15.62-80,23.68-111.86,29.57-12.18,2.26-22.69,4.2-30.26,6.09-4.27,1.07-9.15,1.8-14.8,2.63-34.47,5.11-92.15,13.65-132.51,117.45C627.6,845.44,662.4,907.13,683.19,944c10,17.73,16.61,29.45,13.14,39.87-5.91,17.75-16.58,24.15-30.07,32.25a244.88,244.88,0,0,0-22.79,15c-22.81,17.1-37.94,95.07-37.94,139.12,0,21.24,10.36,48,19.51,71.56,8.38,21.63,15.62,40.31,15.62,54.92,0,29.26-.14,30.24-7.57,52.52-6.83,20.47-5.78,133.9-.57,146.53,5.38,10.77,37.28,62.36,53.39,88.13l1.7,2.73-.1,3,7,.24c0,1.45-1.31,35.75-8.74,58-3.38,10.15-16,23.73-33.39,23.73a36.55,36.55,0,0,1-4.11-.28c-1,.08-1.91.28-2.92.28a34.6,34.6,0,0,1-4.58-.32c-51.39-7-83.34-124.54-95-349.41C520.52,832.67,624.9,656.94,646.08,626.68Z" transform="translate(-92.19 -67.09)"/></svg>